<?xml version="1.0" encoding="utf-8"?>
<!-- Generator: Adobe Illustrator 19.1.0, SVG Export Plug-In . SVG Version: 6.00 Build 0)  -->
<svg version="1.1" id="Lager_1" xmlns="http://www.w3.org/2000/svg" xmlns:xlink="http://www.w3.org/1999/xlink" x="0px" y="0px"
	 width="975.2px" height="307.8px" viewBox="-96 -3.8 975.2 307.8" style="enable-background:new -96 -3.8 975.2 307.8;"
	 xml:space="preserve">
<style type="text/css">
	.st0{fill:#E0E0E0;}
</style>
<g>
	<path class="st0" d="M462.1,304.4c0.2-5.6,0.5-11.3,0.3-16.9c-0.2-4.3,0.3-8.7-0.3-13.1c-1.4-9.7-0.5-19.5-1-29.2
		c-0.1-1.7,0.1-3.5-2.5-3.3c-0.2,0-0.6-0.1-0.7-0.3c-0.7-2.4-3.3-3.9-3.1-6.7c0.1-1.7,1.4-2.4,2.9-2.7c1.3-0.2,1.3-0.8,1.3-1.9
		c0.1-13-0.6-26-0.8-39c-0.1-6.4-0.7-12.6-1.7-18.8c-0.7-4.4-0.7-8.9,3.5-12.1c0.9-0.6,1-1.5-0.4-1.5c-1.6-0.1-1.8-1.1-1.8-2.4
		c0.2-4,0.3-8,1.2-11.9c0.6-2.7-0.2-4.6-2.3-6.3c-3.3-2.6-7.2-4.5-10.4-7.4c-6.5-5.7-10.4-12.9-12.7-21.1c-2-6.9-3.7-13.8-4.6-21
		c-0.2-1.8-0.7-3.4-1.4-5c-1.8-3.8-2.1-7.8-1.4-11.8c0.8-4.9,0.6-9.9,0.6-14.8c0.1-7.7,2.3-14.8,6.4-21.1
		c6.7-10.6,16.5-16.8,29-18.2c12.2-1.4,23.8,0.5,33.7,8.7c5.4,4.5,9.3,10.1,11.7,16.7c0.6,1.7,1.5,3.3,2,5.1
		c0.3-0.2,0.5-0.3,0.5-0.4c-0.8-6.5,2.7-10.3,8.1-12.9c2-0.9,3-1.9,2.1-4.4c-0.8-2.1-0.4-4.2,1.1-6.1c0.6-0.8,1.2-1.8,1.2-2.9
		c0.4-6.3,5-11.4,11.3-12.3c1.3-0.2,2.1-0.9,3-1.7c1.6-1.3,3.5-1.8,5.5-1.8c9.5,0,19,0.2,28.5,1c2.7,0.2,4.7,1.6,6.3,3.7
		c6,7.5,11.5,15.3,16.1,23.8c0.4,0.7,0.8,1.5,1.2,2.2c0.2,0.4,0.4,1.1,1,0.9c0.3-0.1,0.5-0.6,0.7-1c1.5-4.6,3.7-8.7,7-12.2
		c4.7-4.9,10.4-7.8,17.1-8.9c6.8-1.1,13,0.4,18.9,3.7c1.9,1.1,4.1,1.4,5.7,3c5.9,5.5,8.7,12.6,10.4,20.2c0.6,2.6,1.3,4.8,3.3,6.7
		c7.4,7.1,15.3,13.7,22.3,21.1c0.3,0.4,0.8,0.6,1.2,1c1.3-2,1.3-4,0.9-6c-1.3-7.1-1.8-14.1,0.1-21.2c0.1-0.2,0.2-0.5,0.1-0.7
		c-1.3-4,0-8-0.4-12c-0.3-3.2,0.1-6.5,0-9.8c-0.1-1.5,0.2-3-0.8-4.3c-0.6-0.8-0.5-1.5-0.3-2.4c1.7-6.8,5.6-11.4,12.4-13.8
		c7.3-2.7,14.7-3.8,22.4-4.5c2.4-0.2,4.7-0.3,7.1,0.1c4.2,0.6,8.4,0.6,12.6,0.8c11.1,0.6,21,4.1,30.3,10.1c5.7,3.7,7.7,8.9,7.7,15.5
		c-0.1,15.3,0.1,30.6,0.2,46c0,6.4,0,12.8,0,19.2c0,5-1.8,8.8-6,11.6c-3.2,2.1-6.4,4.2-9.8,5.9c-1.6,0.8-2.7,1.9-3.1,3.7
		c-1.8,6.8-3.6,13.7-5.5,20.5c-0.4,1.5,0.2,2.6,1.2,3.6c7.6,8.3,13.5,17.8,19.7,27c3.6,5.4,8.4,9.7,12.7,14.4
		c6,6.5,12.4,12.5,18.4,19c1.5,1.6,1.5,3.4,1,5.4c-0.8,3.1-2.4,5.9-4.5,8.3c-1.4,1.6-1.2,2.7,0.1,4.3c9.8,11.8,20.8,22.5,32,32.9
		c14.8,13.6,30.8,25.7,46.8,37.9c1,0.8,2.1,1.5,1.9,3c-0.3,2.2-2.6,3-4.6,1.5c-8-5.9-15.9-11.8-23.7-17.9
		c-16.5-12.9-32-26.9-46.6-41.9c-1.9-2-4.3-3.6-6.8-5.2c1.7,5.4,3.5,10.9,5.1,16.4c1.9,6.5,4.2,12.9,5.5,19.5
		c1.6,8.6,3.7,17.2,5.1,25.9c0.2,1.3,0.6,2.6,0.8,3.9c0.2,0.9,0.5,2.1-0.3,2.6c-2.7,1.5-1.4,3.4-1,5.4c0.6,2.8,1.4,5.5,1.4,8.3
		c-10.8,0-21.7,0-32.5,0c-0.1-1-0.6-1.7-1.2-2.4c-8.9-9.7-17.8-19.4-26.6-29.1c-1.1-1.2-2.2-2.1-4.1-1.6c-1.1,0.3-2.2-0.5-3.2-1.1
		c-3.4-2.1-6-5-8.5-8c-1.4-1.8-3.1-2.6-5.5-2.7c-8.1-0.4-14.8-5.3-15.7-13.8c-0.3-2.9-2.3-4.7-4.5-6.9c0.1,0.7,0.1,1,0.2,1.2
		c7.8,19.1,15.7,38.2,23.5,57.3c1,2.4,2.4,4.6,2.6,7.2c-7.2,0-14.3,0-21.5,0c-2.7-6.6-5.4-13.3-8.1-19.9
		c-9.9-24.3-19.7-48.6-29.6-72.9c-0.8-1.9-1.3-3.8-3.9-3.8c-0.9,0-1.4-1-2-1.7c-2.2-2.6-3.6-5.6-4.7-8.7c-0.2-0.7-0.7-2.3-1.7-1.3
		c-2.4,2.3-5.3,2.5-8.4,2.5c-2.3,0-2.6,1.1-1.7,3.1c2.1,4.5,3.9,9.2,6,13.7c0.9,1.9,0.8,3.4-0.7,4.7c-1.1,1-1,1.9-0.5,3.1
		c5,12.5,9.5,25.2,14,37.9c5,14.1,10.5,27.9,18.3,40.7c0.5,0.8,0.8,1.7,0.9,2.6c-2.7,0-5.3,0-8,0c-0.1-1-0.6-1.9-1.1-2.8
		c-6-10.9-11-22.2-15.1-33.9c-4.8-13.7-9.9-27.4-15-41c-0.4-1.1-0.8-2.3-2.4-2.1c-1.9,0.3-3.1-0.8-4.1-2.3
		c-2.7-4.2-5.4-8.4-8.2-12.6c-2.1-3.2-4.5-6.2-6.2-9.6c-3.2-6.4-3.3-4.9-7.6-1.4c-1.3,1-3.1,3-1.8,4.8c3.3,4.5,3.9,10,5.8,15
		c1.6,4.2,0.2,8.5-1.4,12.7c-1.7,4.3-3,8.8-4.2,13.3c-1,3.9-2.2,7.7-5.5,10.4c-0.8,0.7-0.9,1.5-0.7,2.4c2.7,9.4,5.2,18.9,8.5,28.2
		c2.2,6.1,3.7,12.4,4.8,18.8c-9.2,0-18.3,0-27.5,0c-2.9-13.4-7-26.4-10.7-39.5c-0.3-1-0.8-2-1.9-2.1c-5-0.6-8.1-4.4-11.6-7.3
		c-4.6-3.8-8.6-8.1-13.4-11.6c-3.1-2.2-5.3-5.1-5.4-9.1c-0.1-3-0.6-5.9-1.8-8.7s-2.9-3.3-5-0.8c-0.7,0.8-1.4,1.4-2.4,1.7
		c-2.8,1-5.6,2.1-8.5,2.8c-1.8,0.4-2.2,1.3-2.2,2.9c-0.2,8.4-0.6,16.8-0.8,25.2c-0.3,11.1-0.4,22.2-0.7,33.2
		c-0.1,4.4-0.3,8.8-0.5,13.2c-4.7,0-9.3,0-14,0c0.3-12.9,0.6-25.8,0.9-38.7c0.2-10.2,0.4-20.5,0.7-30.7c0-1.2-0.1-2.2-0.8-3.2
		c-1.3-1.9-1.9-4-0.5-6.1c1.2-1.8,1.1-3.8,1.1-5.8c0-1.3-0.3-2.3-1.8-2.4c-0.9-0.1-1.7-0.5-2.1-1.5c-1.7-4.1-2.2-4.8-5.8-7.6
		c-0.4-0.3-0.7-0.7-0.7-1.3c0.1-2.6-1-5.5,2-7.4c1.2-0.7,1.4-2.2,1.7-3.5c0.6-2.8,1.1-5.7,3.2-7.8c1.9-1.9,2.3-3.9,2-6.3
		c-0.2-1.8-0.3-3.7-0.6-5.5s-0.5-3.6-2.5-4.6c-1-0.5-1.7-1.6-1.7-2.6c0-2.1-1-3.8-1.7-5.7c-0.9-2.7-1.5-5.5-2.9-7.9
		c-3.3-5.6-7-10.9-10.7-16.3c-4.2-6.2-2.5-6.2-9.5-2.1c-1.3,0.7-1.7,1.5-1.7,3c0,3.9,0.4,7.8-0.5,11.7c-0.7,3-1.7,3.9-4.8,3.9
		c-3,0.1-6,0.1-8.8,1.5c-2.5,1.2-3.3,3.2-1.9,5.7c3.6,6.4,5,13.4,5.4,20.5c0.8,15.2,1.1,30.5,1.1,45.7c0,1.9,0.1,3.8-3.4,3.9
		c2.2,1.1,2.2,2.3,2.3,3.6c0.1,6.5,0.3,13,0.4,19.5c0.1,5.7,0.6,11.5-0.4,17.2c-0.7,4.1-0.6,8.5-2.9,12.2c-0.4,0.7,0.2,1,0.5,1.5
		c1.5,2.4,1.3,3.6-0.8,5.4c-0.9,0.8-1.3,1.6-1.5,2.7c-0.5,3,0,6-0.4,9C473.8,304.4,467.9,304.4,462.1,304.4z M668.2,118.4
		c-0.2,0.1-0.3,0.3-0.5,0.4c1.4,3.3,2.8,6.5,4.2,9.8c2.7,6.6,6.1,12.9,8.2,19.8c0.9,2.8,1.4,6.1-1,8.4c-2,1.9-1.9,3.4-0.8,5.4
		c0.5,0.9,0.8,1.8,1.2,2.7c0.7,1.8,1.8,2.8,3.8,3c3.7,0.3,6,2.4,7,6.1c0.6,2.3,1.7,4.5,2.7,6.7c0.4,0.8,0.7,2.3,1.9,2
		c1-0.2,0.5-1.6,0.6-2.5c0.1-1,0-2,0-3c0.2-7.4-0.8-14.7-3.8-21.5c-1.9-4.3-2.2-8.5-1-12.8c0.4-1.6,0.2-2.7-1-3.8
		c-3.1-2.9-6-6-9.1-8.9C676.5,126.3,672.3,122.3,668.2,118.4z M804.8,299.9c0.2-0.1,0.4-0.1,0.6-0.2c-0.3-1.4-0.6-2.7-0.8-4.1
		c-0.2-0.8-0.5-1.5-1.4-1.5c-1.7-0.1-2.4-1.3-2.9-2.7c-3.3-8.8-6.9-17.5-10.3-26.2c-5.7-14.6-11.4-29.2-16.5-43.9
		c-0.5-1.5-1.1-1.9-2.5-1c-0.5,0.3-1.1,0.5-1.6,0.6c-1.9,0.4-2.1,1.4-1.5,3.1c6.3,17.7,12.6,35.5,19,53.2c0.7,1.9,0.9,4.2,2.3,5.7
		C794.2,288.5,799.5,294.2,804.8,299.9z M659.5,109.9c-11.3-10.3-21.6-21.5-32.6-32.1c-0.1,1.2-0.1,2.3,0.2,3.3
		c2.3,7.5,4.6,14.9,6.9,22.4c0.3,1.1,0.9,1.9,2,2.4c2.1,1.1,3.1,2.9,2.9,5.3c-0.1,1-0.4,2.2,0.6,2.7c1.1,0.6,2.1-0.3,2.9-1
		C647.4,108,653,107.3,659.5,109.9z M517.9,77c-0.1,0-0.2,0.1-0.3,0.1c0,0.2-0.1,0.4-0.1,0.6c1.1,8,2.3,16,3.5,23.9
		c0.9,6.3-0.2,12.1-4.2,17.2c-1.8,2.2-3.3,4.6-5,6.8c-1,1.4-0.9,2.4,0.6,3.2c2.7,1.6,5.3,3.1,7.9,4.8c1.4,0.9,2.3,0.8,3.1-0.8
		c0.9-1.8,2.1-3.4,3.2-5.1c2.4-3.8,2.2-8,1.1-11.9c-1.1-3.6-1.9-7-1.5-10.8c0.1-0.9,0-1.8-0.3-2.7c-1.5-4.6-3-9.2-4.4-13.8
		C520.2,84.9,519.1,80.9,517.9,77z M525,149.7c-0.9,5.1-0.4,9.6,3.1,12.9c2.1,2,4.2,3.6,4.3,6.8c0,0.5,0.6,1,1,1.3
		c4.1,3.2,8.7,5.5,13.7,6.8c1.3,0.3,1.8-0.1,1.4-1.4c-0.6-1.9-1.5-3.8-1.8-5.7c-0.6-4.2-3.6-6.3-6.7-8.4
		C534.8,158.4,528.4,156.3,525,149.7z M614.5,75.6c0.1-1.4-0.1-2.5-1.5-3.1c-2.2-0.9-4.1-2.6-6.5-3.1c-1-0.2-1.9-1.8-3.1-0.7
		c-1.2,1.1-0.6,2.7-0.5,4c0,0.5,0.4,1.1,0.7,1.6c2.1,2.8,1.8,5.6-0.5,7.9c-3.1,3.1-2.6,6-0.3,9.1c0.1,0.1,0.2,0.3,0.3,0.4
		c0.5,1,1.2,1.8,2.5,1.7c1.3-0.1,1.6-1,2-1.9c1.2-2.6,2.6-5.2,3.7-7.9C612.4,80.9,614.4,78.6,614.5,75.6z M617.6,171.6
		c-2.6,0.1-3.2,0.9-2.6,3.3c0.2,1,0.5,1.9,0.8,2.9c1.7,6.3,3.3,12.5,5,18.8c0.3,1.3,1,2,2.2,0.8c1.8-1.7,3.8-3.2,5.8-4.7
		c1.1-0.7,1.2-1.6,0.6-2.8c-3.2-5.7-6.3-11.4-9.4-17C619.4,171.9,618.6,171.5,617.6,171.6z M745.3,220.2c-2.3,2.1-3,4.4-2.4,6.9
		c0.6,2.4,1.8,4.2,4.6,4.6c0.5,0.1,1,0.6,1.3,1.1c1.3,1.4,2.6,2.8,3.9,4.2c2.7,2.9,5.4,5.7,8,8.6c-1.5-5.9-3.5-11.6-5.5-17.2
		c-0.6-1.7-1.1-3.2-3.4-1.9c-0.4,0.2-1.3,0.2-1.4-0.1C749.1,224,745.4,223.8,745.3,220.2z M645.5,160.7c2.5,0.2,4.1-0.7,5.9-1
		c1.3-0.2,1.8-0.8,1.2-2.2c-1.8-4.4-3.5-8.8-5.2-13.2c-2-4.9-2.4-5-7-2.1c-1.5,0.9-1.9,1.8-1,3.5c1.9,3.2,3.6,6.5,5.5,9.8
		C646,157,646.9,158.6,645.5,160.7z M626.8,100.2c-0.3-1.4-0.6-2.3-0.8-3.2c-1.8-6.1-3.7-12.2-4.7-18.6c-0.2-1.1,0-3-1.6-3
		c-1.6-0.1-1.6,1.9-2.2,3c-0.1,0.3-0.2,0.7-0.1,1c0.5,4.9-0.3,9.8-0.6,14.6c-0.1,0.8-0.2,1.8,0.8,2.1
		C620.7,97.1,623.5,98.7,626.8,100.2z M615.8,107.7c-0.4,1.5,0.2,2.7,2.2,3.1c1.7,0.4,2.8,1.7,3.7,3.1s1.7,2.9,2.5,4.3
		c0.5,0.8,1,1.6,2.2,1.2c1.7-0.6,3.5-1.1,5.2-1.8c1.3-0.5,1.4-1.3,0.2-2.1c-1.4-0.9-2.9-1.9-3.3-3.6c-0.4-2-1.7-3.2-3.2-4.2
		c-1.8-1.2-3.7-2.3-5.6-3.3c-3.3-1.6-3.6-1.4-3.8,2.3C615.8,107,615.8,107.2,615.8,107.7z M656.8,162.9c-4.8,0.7-9.3,1.8-13.8,3
		c-1.1,0.3-1.3,0.9-0.8,1.8c0.8,1.7,1.6,3.5,2.4,5.2c0.6,1.5,1.2,1.9,2.2,0.2c1.3-2,3.2-3.4,5.6-3.9c2.5-0.5,5.1-0.8,7.6-1.1
		c1.2-0.2,2.5-0.4,3.4-1.3c1-1,0.6-2.3-0.3-2.4C660.8,164.2,658.7,163.7,656.8,162.9z M542.9,158.3c-1.1-3.3-2.1-6.6-3.3-9.8
		c-0.5-1.3-1.6-2.2-3.2-1.2c-0.7,0.4-1.3,0.2-1.8-0.4c-1.5-2-3.8-2.9-5.8-4.2c-0.6-0.5-1.6-1.4-2.3-0.1c-0.6,1.1-1.3,2.3,0,3.4
		c0.5,0.4,1,0.8,1.6,1.2C533,150.8,538.9,153,542.9,158.3z M743.2,217.8c-0.6-2.1-1.3-4.1-1.9-6.2c-0.2-0.6-0.5-1.3-1.1-1.6
		c-1.6-0.7-1.8-1.6-1-3.1c0.6-1.2,0.1-2.1-1.3-1.7c-2.2,0.7-4.4,1.4-6.5,2.5c-1.1,0.6-1.2,1.2-0.2,2.1
		C734.7,212.9,737.2,217.7,743.2,217.8z M508.5,130.4c2.3,4.2,6.5,6.2,9.9,9.1c0.5,0.4,1.1,0.5,1.4-0.2c0.4-0.7,0.8-1.4-0.1-1.9
		C516,135,512.3,132.7,508.5,130.4z M707,181.2c0.2-1.4-0.2-2.7-1.6-3.5c-0.6-0.4-1.3-0.3-1.8,0.2c-1.2,1.2-0.8,2.6-0.4,4
		c0.3,1.2,0.7,2.7,2.2,2.6C707.1,184.4,707,182.7,707,181.2z M532.6,178.8c-0.5,2.7,0.2,3.8,3,3.6c3.7-0.2,7.2,1.1,10,3.8
		c0.4,0.3,0.7,0.7,1.1,1c1,0.6,1.3-0.2,1.7-0.8c0.5-0.8,0-1.2-0.8-1.4C542.4,183.8,537.5,181.7,532.6,178.8z"/>
	<path class="st0" d="M149.1,304.4c1-3.6,3-6.6,4.7-9.8c6.1-11.7,11.6-23.6,17.4-35.4c0.4-0.7,0.8-1.5,0.7-2.4
		c-0.8-4.5,0.1-8.8,1.3-13c2.6-8.5,4.9-17.1,8.5-25.3c1.8-4.2,3.9-8.3,5.9-12.4c0.6-1.2,0.7-2.2-0.3-3.4c-2.8-3.7-3.1-7.5-1.1-11.9
		c5.3-12,9-24.5,13.6-36.8c0.2-0.5,0.4-1.1,0.6-1.6c1.9-3.6,4-4,7-1c1.7-2.8,2.5-5.9,3.6-8.9c5.9-15.9,11.8-31.9,17.2-48
		c0.9-2.7,0.7-5.4,0.2-7.9c-0.9-4.2-0.4-8.4-0.7-12.6c-0.4-6.3,2.4-11.2,6.8-14.9c3.6-3.1,7.5-6,11.6-8.5c6-3.7,12.8-3.5,19.4-2.2
		c6.8,1.4,12.4,5.2,16.7,10.8c4.8,6.3,6,13.5,5.5,21.1c-0.2,3.1-0.4,6.2-1.6,9.1c-0.6,1.5,0,1.7,1.3,1.8c3.2,0.2,6.3,0.5,9.5,0.7
		c3.5,0.2,5.1,1.6,5.7,5.1c0.1,0.5,0.2,1,0.3,1.5c0.7,4.5,0.7,4.5,3.8,8c1-1.2,1.3-2.6,1.7-4c2.9-8.8,5.8-17.5,8.8-26.3
		c1.2-3.3,2.1-6.6,2.6-10.1c0.6-4.3,4.7-7.4,10.2-8.2c5-0.7,9.6,0.1,13.6,3.5c1,0.9,2,1.9,2.3,3.2c0.5,1.8,1.9,1.8,3.3,1.9
		c1,0.1,1.4-0.3,1.1-1.3c-2.1-7.2,0.2-14.2,2.9-20.4c5.7-12.9,15.8-20.2,31.5-18.2c9.1,1.1,15.8,6,21.3,13
		c4.4,5.5,7.2,11.4,6.6,18.5c-0.4,4.5-1.1,9.1-2.8,13.4c-0.8,2.1-0.2,4.5,0.8,6.2c3,5.2,3.2,11,4.6,16.5c2.7,10.3,3.6,21,5.6,31.4
		c1.3,7.1,1.1,14.6-2,21.5c-0.3,0.8-0.2,1.4-0.1,2.2c1.3,6.3,1.4,12.7,3.2,18.9c0.6,1.9,0.5,3.8-0.6,5.8c-1,1.9-0.1,3.9,0.4,5.8
		c1.6,6.8,3.8,13.4,4.9,20.4c0.4,2.7,0.8,5.1-0.2,7.8c-1.3,3.7-0.1,7.5,0.8,11.1c0.8,3.3-0.1,5.7-2.4,7.8c-1.1,0.9-1.4,1.9-1.3,3.3
		c1.4,12.4,3.2,24.8,6.9,36.7c2.2,6.9,4.2,13.9,7.6,20.3c0.8,1.5,0.9,3,0.7,4.8c-0.4,3,1.3,5.7,1.7,8.7c0.2,1.2,0.7,2.4,0.4,3.7
		c-2.8,0-5.7,0-8.5,0c-0.5-4.9-2.8-9.3-4.8-13.7c-0.6-1.5-1.2-3-1.9-4.7c-0.4,1.3,0,2,0.1,2.8c0.9,5.2,2.7,10.3,3.1,15.6
		c-5,0-10,0-15,0c-2.1-10.2-4.1-20.4-6.2-30.6c-3.3-15.6-6-31.4-9.7-46.9c-1.5-6.2-2.6-12.5-3.9-18.8c-0.2-0.9-0.2-2.1-1.3-2.6
		c-1.7-0.7-3.1-2.1-4.7-2.7c-5.2-2-7.9-5.6-8-11.1c0-0.9-0.4-1.7-1.3-1.9s-1,0.7-1.3,1.3c-1.5,2.7-3.1,3.3-5.9,2.2
		c-0.7-0.3-1.7-1-2.2,0c-0.9,1.7-2.3,2.5-4.1,3c-1,0.3-1.1,1.3-1.3,2.2c-0.5,2.5-1.2,5-1.8,7.5c-0.4,1.9-1.6,2.5-3.3,2
		c-0.9-0.2-1.6,0-2.3,0.6c-2.2,2-4.9,3.2-7.7,4.1c-0.9,0.3-1.9,0.6-2,1.6c-0.5,2.9-2.3,5.5-2,8.7c0.2,3,0,5.9,1.5,8.9
		c2.5,5-0.1,9.7-2.4,14.1c-0.6,1.2-1,1.9,0,3.1c1.7,2,2.3,4.4,2,7c-0.8,7.5,0.1,14.9,0.8,22.4c0.4,4.9,2,9.8,0.6,14.6
		c-1.1,3.8-1.1,7.7-1.6,11.6c-8.3,0-16.7,0-25,0c0.2-5.1-0.1-10.1,0.3-15.2c0.2-2.5,0.2-5.3-1.4-7.4c-3-4-3.1-8.6-3.2-13.2
		c0-2.2,0.1-4.5,0.1-6.7c0-0.6-0.2-1.3-0.9-1.3c-0.8-0.1-0.7,0.7-0.8,1.3c-0.4,1.5-0.7,3.1-1.3,4.5c-1.6,4.2-3.1,5.2-7.5,4.6
		c-1.8-0.2-2.5,0.5-3,2c-2.5,7-5.2,13.9-7.8,20.8c-0.4,1.1-0.9,2.4-2,2.7c-2.1,0.7-2.5,2.1-2.6,4c-0.1,1.3-0.3,2.6-0.4,4
		c-2.2,0-4.3,0-6.5,0c0.3-2.1,0.5-4.1,0.8-6.2c0.2-1.5,0.1-2.7-1.3-3.7s-1.8-2.5-1.3-4.2c0.3-1,0.4-2.1,0.6-3.2
		c2.2-11.7,3.5-23.5,6-35.2c1.7-7.6,3.7-15,5.6-22.5c0.3-1.1,0.7-2.1-0.9-2.5c-4.6-1.3-8.5-4.1-12.6-6.5c-2.8-1.7-3.9-4.9-6.2-7
		c-0.2-0.2-0.3-0.6-0.2-0.9c0.4-2.5-0.4-5.1,0.6-7.6c0.6-1.6,0.8-3.4,1.2-5.1c0.2-1.2-0.1-2.3-1.4-2.5c-1.5-0.3-1.5,1.1-1.7,1.9
		c-2.8,11.2-5.4,22.5-8.2,33.7c-0.4,1.8-0.1,2.9,1.3,4.1c2.1,1.8,3.6,3.9,2.8,7c-1.6,6.4-2.8,12.9-4.6,19.2
		c-0.9,3.3-1.8,6.9-5.1,8.8c-1.4,0.8-2,1.8-2.4,3.2c-2.3,9.8-4.7,19.6-7.1,29.4c-6.8,0-13.7,0-20.5,0c0.2-1,0.3-2,0.5-2.9
		c2.6-10.4,5.1-20.8,7.7-31.2c0.4-1.4,0.3-2.5-0.8-3.6c-1.3-1.1-1.4-2.8-1.5-4.4c-0.2-3.1,1-5.9,1.6-8.8c0.2-0.8,0.7-1.8-0.8-1.8
		c-2.2,0-3.9-1.1-5.8-2.2c-2.4-1.4-3.1-1.1-3.9,1.6c-0.2,0.6-0.3,1.1-0.4,1.7c-1,3.5-3.1,6.1-6.7,7c-2.5,0.6-4.5,2.1-7.1,3
		c3.8,3.6,6.1,7.7,6.9,12.7c1.5,9.2-8.3,18.3-17.4,16.1c-0.9-0.2-1.8-0.6-2.4,0.5c-2.4,4.1-5.1,8-6.9,12.4c-9.2,0-18.3,0-27.5,0
		c-0.5-1.7,1-2.5,1.5-3.8c0.3-0.7,1.2-1.2,0.7-2c-2.4-4.2,0-8,2-10.9c3.3-4.9,6.5-9.9,9.7-14.8c2.1-3.2,4.6-4.9,8.4-4.6
		c1.2,0.1,2.3-0.2,3-1.4c2.1-3.5,4.3-6.9,6.4-10.4c0.3-0.5,0.7-1.3,0.5-1.6c-1.5-2.6-1.4-5.4-1.5-8.2c0-0.4-0.4-1.1-0.7-1.2
		c-0.7-0.3-0.9,0.5-1.2,0.9c-1.9,2.7-3.6,5.5-5.6,8c-1.8,2.2-3.7,4.6-6.3,5.8c-1.4,0.7-2.2,1.5-2.8,2.8c-4.5,9.3-8.9,18.6-13.4,27.9
		c-2.2,4.5-4.4,9-6.5,13.5C155.4,304.4,152.3,304.4,149.1,304.4z M250.6,140c-2.7,4.3-5.4,8.5-7.4,13.2c-0.9,2-0.8,3.3,0.6,4.9
		c3.1,3.4,3.1,4.9,1,9c-4.3,8.3-8.5,16.6-12.8,24.9c-0.5,1.1-1,2.1-0.9,3.3c0.1,3.4,0.1,6.8,0.2,10.2c0,2.3,0.7,3.8,3.4,4.3
		c4.7,1,7.1,4.3,7.1,9.2c0,1,0.2,1.8,1.1,2.3c2.7,1.6,5.4,3,7.9,5.3c0.4-1.1,0.8-1.9,1-2.8c4-16.1,7.9-32.1,11.9-48.2
		c0.4-1.5,0-2.5-1.1-3.5c-2.3-1.9-4.6-3.8-6.7-6c-5.8-6.1-9.2-13-6.3-21.7C250,143,250.3,141.5,250.6,140z M363.7,106.4
		c-0.2,1.1-0.5,2.3-0.7,3.4c-1.4,6.8-2.8,13.7-4.1,20.5c-0.5,2.7-0.1,3,2.4,2c1.8-0.7,2.7-0.1,3.4,1.7c1.5,3.7,3.5,4.9,7.5,4.5
		C369.5,127.8,367.2,117,363.7,106.4z M269.3,113.9c0.1-0.5-0.1-1-0.5-1c-1.8,0.1-3.7-0.5-5,1.5c-2.1,3.3-4.1,6.6-5.7,10.2
		c-0.3,0.8-0.9,1.6,0.5,1.9c1,0.2,2.4,1.6,3-0.6c0.6-2,1.8-3.2,3.9-3.1c0.6,0,1.2-0.1,1.4-0.8C267.7,119.3,268.5,116.6,269.3,113.9z
		 M316.4,230.9c-3,3.1-3.1,6.7-1.5,10c1.2,2.4,1.7,4.7,1.7,7.4c0,1.4-0.7,2.9,0.4,4.6c0.7-1.9,1.4-3.4,2.6-4.5
		c0.8-0.7,0.2-1.3-0.3-1.9c-1.8-2.3-2.2-4.9-1.3-7.8c0.6-1.8,0.7-3.6-0.2-5.4C317.5,232.5,316.1,232.3,316.4,230.9z M361.2,173.8
		c-0.2-1.8-1.7-1.7-2.9-1.9c-1-0.1-2.2-0.7-2.5,1c-0.4,2.2-0.9,4.4-1.3,6.5c-0.1,0.6-0.2,1.1,0.4,1.5c1,0.6,4.7-0.4,5-1.6
		C360.4,177.6,360.7,175.7,361.2,173.8z M268.4,156.3c-1.1-3.3-2.3-5.7-3.6-8.1c-1.1-2-2.7-0.6-4-0.5c-0.8,0.1-0.4,0.9-0.1,1.4
		C262.9,151.7,265,154.2,268.4,156.3z M376.5,166.2c0.7,0.1,1.3,0.2,1.6-0.2c0.4-0.6,0-1.1-0.4-1.5c-1-1.1-2.1-2.1-3.2-3.1
		c-0.6-0.5-1.3-1.6-2-1.1c-1,0.6-0.8,2.1-1.1,3.2c-0.3,1,0.5,1.3,1.2,1.6C374,165.4,375.3,165.8,376.5,166.2z"/>
	<path class="st0" d="M-95.9,304.4c-0.4-1.4,0.5-2.4,1.2-3.4c9.8-16.6,19.8-33.2,29.5-49.9c12.4-21.5,24.4-43.2,36.6-64.8
		c0.2-0.4,0.5-0.9,0.7-1.3c1.5-2.5,1.5-2.5-1.3-3.6c-0.6-0.2-1.6-0.4-1.3-1.2c0.9-2-0.1-4,0.6-6c0.8-2.3,1.8-4.4,3.2-6.4
		c3.4-4.9,6.3-10,9.4-15c0.8-1.3,1-2.6,0.7-4.2c-2.2-10.7,7.3-20.6,18.1-20.4c9.2,0.2,19.8-6.5,18.1-18.7c-0.2-1.2,0-2.5-0.2-3.7
		c-0.3-2.6-0.1-4.7,3.4-4.4c1.3,0.1,1.8-0.9,1.3-2.3c-2.1-6.5-3.4-13.2-4.9-19.9c-0.7-3-3.4-4.5-6.3-3.5c-1.2,0.4-2.2,0.4-3.4,0.2
		c-6.8-1.3-13.3-3.2-19.4-6.4c-2.6-1.4-4.8-3.5-7.1-5.3c-1.7-1.4-3.2-2.9-5-4.1c-1.4-0.9-2.2-2.3-2.5-4.1c-0.4-2.5-1.7-4.7-3-6.8
		c-1-1.6-1.4-3-0.8-4.9c0.7-2.1,0.8-4.5-0.1-6.6c-0.7-1.6-0.5-2.9,0.3-4.3c1.5-2.7,2.7-5.5,3.2-8.6c0.2-1.4,1.2-2.5,2.3-3.5
		c3.1-2.8,6.2-5.6,9.3-8.3c3.4-2.8,7.6-4.1,11.6-5.6C4.8,4.9,11.6,3.7,18.5,3c0.6-0.1,1.3,0.1,1.7-0.3c2.3-2.1,5.3-2.4,8.1-3.4
		c2.8-1,5.5-1.1,8.3-0.8c2.3,0.2,4.6,0.6,6.9,0.8c3.9,0.3,7.1,2.7,10.8,3.6c4.8,1.3,9.8,1.6,14.7,2.5c7.3,1.4,14.3,4,20.4,8.2
		c5.9,4.1,10,9.9,12,17c0.2,0.6,0.3,1.3,0.6,1.9c0.6,1.4,2,1.5,3.1,1.7c1.2,0.2,1.4-1,1.8-1.8c0.9-1.5,1.2-3.1,1.5-4.9
		c0.7-4.4,3.7-7.3,7.6-9.2c6.9-3.2,14.1-2.6,21.1-1.2c12.2,2.4,22.2,9.1,30.2,18.6c1.9,2.2,2.5,4.9,2.4,7.9
		c-0.1,3.2,0.3,6.3-1.3,9.2c-0.4,0.8-0.7,1.7-1.5,2.3c-3.8,3.2-5.7,7.3-6.3,12.2c-0.3,2.7-1.7,5.3-4.1,7.4c-2.9,2.4-4.6,6-4.9,10
		c-0.2,2.5-0.9,4.9-2.8,6.5c-5,4.1-7.9,9.5-10.7,15.2c-4.3,8.9-8.6,17.8-13.2,26.6c-4.5,8.7-8.6,17.6-12.9,26.4
		c-2.4,4.9-4.3,10.1-7.4,14.6c-2.3,3.3-3.4,7-5.3,10.5c-5.4,10.1-11.2,19.8-16.9,29.8c-1.9,3.3-3.3,6.9-5.4,10.1
		c-0.9,1.3-1.8,2.3-3.3,2.8c-2.4,0.7-4.7,1.7-7,2.5c-1.3,0.5-1.5,1.2-0.5,2.2c0.7,0.7,1.4,1.4,2,2.2c1.1,1.8,2.6,2.7,4.8,3
		c5.4,0.6,9.2,4,12.4,8.1c0.6,0.8,0.9,2.3,2.3,1.8c1.2-0.4,1.4-1.7,1.3-2.7c-0.1-2.2,0.9-4,1.5-6c2.6-8.1,5.5-16.1,9.6-23.5
		c2.8-5.2,6.8-9.7,9.5-15c0.6-1.1,1-2.1,0.8-3.5c-0.4-2.3,1.8-3.6,3.3-4.6c2.1-1.4,3.1-3.4,2.8-5.5c-0.5-3.6,0.9-6.7,2.4-9.4
		c1.3-2.4,1.6-5,2.2-7.5c0.9-4.1,2.4-8,4.3-11.7c3.3-6.6,6.6-13.3,10.1-19.8c1.5-2.9,3.1-5.8,7-6.1c1.1-0.1,1.4-1.2,1.7-1.9
		c4.6-9.3,9.2-18.7,13.7-28.1c3.5-7.4,8.1-14.2,12.1-21.3c4.1-7.3,8.3-14.6,12.7-21.7c2.2-3.5,4.1-7.6,8.2-9.5c1.8-0.9,3.7-2.4,6-1
		c0.3,0.2,0.6,0.2,0.9-0.1c0.1-0.1,0.3-0.2,0.4-0.3c1.9-1.7,2.3,1.3,3.3,1.1c1.3-0.3,2.5-1.8,3.2,0.7c0.2,0.7,0.8,1.1,1.6,0.6
		c0.3-0.2,0.7-0.5,0.9-0.4c1.7,1.1,3.7,2.1,4.8,3.6c0.6,0.8,0.6,1.7,1.9,1.2c0.2-0.1,0.9,0.2,0.9,0.2c-0.4,2.4,2.5,2.8,3,4.8
		c0.4,1.6,1.7,2.7,1.6,4.6c0,1.5,0.1,3-0.4,4.3c-2,4.7-3.7,9.5-6.3,13.8c-2.6,4.2-5.3,8.4-7.7,12.7c-3.6,6.4-6.9,12.9-10.7,19.2
		c-3.9,6.4-8.1,12.6-12.3,18.8c-1,1.6-1.8,2.8-0.6,4.9c1.6,2.9,0.5,5.8-1.1,8.5c-4.2,6.7-8.4,13.4-12.7,20.1c-1.8,2.8-3,5.9-5.4,8.4
		c-1.1,1.1,0.2,2.9-0.3,4.4c-0.8,2.2,1.2,2.3,2.5,2.9c4.7,2.2,6.2,5.7,5,11.1c-0.9,4-3.1,7.3-5.2,10.7c-3.2,5-6.5,9.9-9.6,14.9
		c-0.9,1.4-2.6,1.4-3.7,2.5c-1.6,1.5-3.5,2.7-5.1,4.3c-1.3,1.4-3.3,2.2-5.2,2.2c-2.5,0.1-3.7,1.4-4.9,3.2c-4.4,6.7-8.8,13.3-13.3,20
		c-1,1.5-1.2,2.7-0.3,4.4c1.1,2,1.8,4.3,0.5,6.5c-4.1,6.9-8.1,14-13,20.4c-1.6,2.1-3.8,3.5-6.4,4c-0.9,0.2-1.8,0.5-2.3,1.4
		c-3.5,5.6-7.6,10.9-10.8,16.8c-17.7,0-35.3,0-53,0c-0.3-0.9,0-1.6,0.3-2.4c1.7-5.6,3.5-11.3,5.2-16.9c1.9-6.1,3.9-12.2,5.8-18.3
		c0.5-1.7-0.6-6.4-1.6-6.7c-1.1-0.3-6.1,1.8-6.7,2.9c-2.9,5.6-5.8,11.2-8.6,16.9c-0.5,1.1-2.1,1.7-1.9,3.1c0.3,1.7-0.6,2.9-1.3,4.2
		c-3.5,6-7,11.9-11.2,17.4c-7.2,0-14.3,0-21.5,0c-0.3-1.1,0.2-1.9,0.6-2.9c0.9-2.4,2.2-4.8,2.2-7.4c0-3.4,1.3-6.1,2.8-8.9
		c2.7-5.2,5.6-10.4,8.6-15.5c3.1-5.2,5.6-10.8,8.5-16.2c0.8-1.5,1-2.8-0.2-4.1c-1.1-1.4-1.3-2.8-0.3-4.4c0.6-0.9,0.9-2.1,0-3
		c-2.6-2.5-2.2-5.1-0.4-7.8c0.4-0.6,0.7-1.3,0.9-2c0.6-1.8-1-2.2-1.9-3.1c-0.7-0.7-1.6-1.5-2.6-0.6c-3,2.7-6.3,2.7-10,1.7
		c-3.8-1-6.2-3-6.8-6.9c-0.7-4.2,0.5-8,3-11.2c4.2-5.3,13-5.1,16.6,0.6c1.3,2,2.7,2.9,4.9,2.9c0.7,0,1.5,0.2,2.2,0.3
		c2.9,0.5,4.1-0.2,5-2.9c0.5-1.4-0.3-2.7-0.9-3.8c-2.2-4.2-2.1-8.3,0.3-12.3c1-1.6,1.2-3.4,0.9-5.3c-0.8-5.9,0.2-11.9-1.4-17.9
		c-1.3-4.9-0.5-10.4-0.7-15.7c-0.1-3-0.7-3.5-3.6-2.7c-2.9,0.9-5.9,1.7-8.3,3.9c-1.3,1.3-3.1,2-4.9,2.2c-0.7,0.1-1.8,0.1-1.8,1
		c0,3.4-2.4,5.6-3.9,8.2c-3.2,5.6-5,11.9-9.8,16.6c-1.4,1.3-3.3,1.3-4.6,2.8c-0.7,0.8-1.7-0.7-2.5-1.1c-1.1-0.5-1.8-0.3-2.4,0.8
		c-6,10.9-12,21.7-18.1,32.5c-14.7,26.2-29.5,52.4-43.7,78.9c-0.5,1-1.2,2-1.3,3.2C-84.2,304.4-90.1,304.4-95.9,304.4z M53,142.1
		c0.8-1.6,1.5-2.9,2.1-4.1C66.2,116.2,78,94.7,88.5,72.6c1-2.1,1.1-4.1,1-6.3c-0.1-1.7-0.8-1.8-2.1-1.1c-1.5,0.9-3,1.9-4.5,2.6
		c-7,3.3-14.4,5.2-21.9,6.4c-2.8,0.5-3.4,1.7-3.9,4.1c-1.4,7.6-2.5,15.3-5.6,22.5c-0.4,1-0.3,2,0.1,2.9c0.6,1.4,0.7,2.9,0.7,4.4
		c0,3.3,0.2,6.7,0.2,10C52.6,125.9,53.3,133.7,53,142.1z"/>
</g>
</svg>
