<?xml version="1.0" encoding="utf-8"?>
<!-- Generator: Adobe Illustrator 19.1.0, SVG Export Plug-In . SVG Version: 6.00 Build 0)  -->
<svg version="1.1" id="Layer_1" xmlns="http://www.w3.org/2000/svg" xmlns:xlink="http://www.w3.org/1999/xlink" x="0px" y="0px"
	 width="80px" height="80px" viewBox="0 0 80 80" style="enable-background:new 0 0 80 80;" xml:space="preserve">
<style type="text/css">
	.st0{fill:#C2A97D;}
	.st1{fill:#FFFFFF;}
</style>
<circle class="st0" cx="40" cy="40" r="40"/>
<path class="st1" d="M40,76.7C19.8,76.7,3.3,60.2,3.3,40S19.8,3.3,40,3.3c20.2,0,36.7,16.4,36.7,36.7S60.2,76.7,40,76.7z M40,4.3
	C20.3,4.3,4.3,20.3,4.3,40s16,35.7,35.7,35.7c19.7,0,35.7-16,35.7-35.7S59.7,4.3,40,4.3z"/>
<g>
	<path class="st1" d="M34.5,38.4l-0.1-0.1c0,0-3.6-7.5-5.8-11.9c-0.7-1.4-1.3-2.4-1.8-3.2c-0.4-0.6-1.2-2.1-3.3-2.1h-6.8l0-2h8
		c3.2,0,4.3,2,4.4,2.3C30.7,23.8,39.6,38,39.6,38l0.2,0.3H34.5z"/>
	<path class="st1" d="M28.8,59.3c-0.6,0-2.6-0.1-2.6-2.8V27.4c0-4.7-4.1-7.1-4.1-7.1v36.4c0,0,0,0.1,0,0.2c0,0.6-0.1,2.4-2.2,2.4
		h-2.7v2l16,0v-2H28.8z"/>
	<path class="st1" d="M51.7,21.1c-0.7,0-1.8,0-1.8,0v-2h13.7v2.1c0,0-0.7,0-2.2,0c-2.9,0-2.8,2.2-2.8,2.9v33l-4.1,0V24
		C54.5,24,54.7,21.1,51.7,21.1"/>
	<path class="st1" d="M34.3,18.8c9.9,0,13.5,5.2,13.6,11.9v0.9c0,8.5-6.8,11.5-14.3,11.5h-5.7v-1.9h5.2c11.6,0,11.2-9.2,11.2-9.3
		v-1.3c0,0,0.7-10-11-10H33h-1.5v-1.9H34.3z"/>
	<path class="st1" d="M55,59.2c-2.5,0-3.5-1.9-3.5-1.9c-2.2-3-8.3-12.4-8.3-12.4l-4.9,0c0,0,5.9,9,8.7,13.1c0,0,2,3.2,6.1,3.2
		c5.1,0,7.8,0,7.8,0l0-2H55z"/>
</g>
</svg>
