<?xml version="1.0" encoding="utf-8"?>
<!-- Generator: Adobe Illustrator 19.0.0, SVG Export Plug-In . SVG Version: 6.00 Build 0)  -->
<svg version="1.1" id="Layer_1" xmlns="http://www.w3.org/2000/svg" xmlns:xlink="http://www.w3.org/1999/xlink" x="0px" y="0px"
	 width="739px" height="625.9px" viewBox="0 0 739 625.9" enable-background="new 0 0 739 625.9" xml:space="preserve">
<g id="XMLID_2_">
	<path id="XMLID_9_" fill="#3D3F3E" d="M38.5,625.6c0,0-0.8-4.3-1-10.3c-0.2-6-0.3-9.2-0.3-14s-0.6-10.5-0.6-13.3
		s-1.4-10.6-1.9-14.8c-0.5-4.1-0.3-14.4-2.5-18.9s-4.1-14.3-5.6-17.9c-1.4-3.6-4-12.2-5.2-13.6c-1.3-1.4-4.4-12.8-5.1-17.9
		c-0.6-5.1-2.4-14.9-2.4-20.6s-1-16.7-1-20.5c0-2.6,0-8.6-0.3-14.9l-0.2-1.9c-0.1-2.1-0.3-4.3-0.5-6.3c-1-8.7-3-21.7-3.3-26.2
		c-0.3-4.4-1.3-18.1-2.7-24.1s-3-19.2-3.6-25.7s-1.7-15.2-2.1-19s-0.3-9.8,0.2-15.2c0.5-5.4,0.6-12.1,1.1-14
		c0.5-1.9,0.5-6.2,2.2-11.7s2.5-13.6,2.5-14.9c0-1.3,0.8-12.1,2.4-20.3c1.6-8.2,4.1-18.7,8.6-21.6c4.4-2.9,16-10.9,25.9-14.8
		c9.8-3.8,19.3-6.5,25.7-8.4c6.3-1.9,6.5-2.7,6.5-2.7s1.4-0.8,2.7-2.5s5.1-8.7,7.9-12.5c2.9-3.8,5.4-6.2,6-7.8s1.9-6,3.6-6.3
		c1.7-0.3,3.2-0.5,3.2-0.5s3.9-4.5,4.6-6c0.5-1.1,3.6-7.1,4.1-7.6c0.5-0.5,1.9-0.8,2.9-0.6c2.9,0.5,9.8,0.3,9.8,0.3s1.3-7.3,1.4-8.7
		c0.2-3,0.5-10.5,0.2-12.1s-1.9-5.7-3.5-6.7c-1.6-1-3.6-3.8-3.6-4.8s-0.5-3.6-1.1-4.3c-0.6-0.6-4.4-2.4-6-2.4
		c-1.6,0-10.2-3-10.9-3.8c-0.8-0.8-3.6-3.3-4-4.4c-0.3-1.1-4.9-6.7-5.1-8.1s-1.7-4-2.2-4.6c-0.5-0.6-4-3.2-5.1-4.1s-3.3-5.2-3.6-7.1
		s-1-7.5-1.3-8.9s0.2-7.5,0.5-9s2.4-3.3,5.4-4.8c3-1.4,5.4-3,6-4c0.6-1,4.9-1.9,5.7-2.1c0.8-0.2,2.9-3.8,3.3-4.8c0.5-1,1.6-2.7,3-3
		s4.4-1.6,4.6-2.1c0.2-0.5,0.2-4.4,1-5.4c0.8-1,2.1-3,2.2-4.3c0.2-1.3,2.2-4,2.5-4.9s0.6-2.2,2.5-5.1c1.9-2.9,3.3-4.9,4.9-5.9
		c1.6-1,2.5-2.9,4.8-4c2.2-1.1,4-2.9,7.9-4.6c4-1.7,7.6-2.9,8.4-3.5s3.5-1.6,4.6-2.1c1.1-0.5,3.3-2.2,5.9-2.4
		c2.5-0.2,4.2-1.4,12.1-1.6c5.4-0.1,6.8-0.3,6.8-0.3s5.7,0.2,7.9,0.5c2.2,0.3,4.9,1.9,4.9,1.9s5.1,1.4,6,1.4c1,0,5.2,0.6,7,1.9
		c1.8,1.3,4,3.6,4.6,3.3c0.6-0.3,1.9-0.3,3.3,0.2c1.4,0.5,4.1,1.1,4.8,1c0.6-0.2,3.6,0,4.8,1.3c1.1,1.3,1.7,3.8,3.6,5.2
		s3.2,2.2,3.2,2.2s2.2,2.2,2.4,2.7c0.2,0.5,2.5,2.5,2.5,2.5s1.6,1.6,2.1,2.5c0.5,1,1.9,3,1.9,3.5s1.9,1.7,2.5,2.4
		c0.6,0.7,1.2,2.4,1.2,3.2s1.6,2.1,1.6,3.2c0,1.1,1.7,3,1.7,3.6c0,0.6,0.2,4.3,0.2,4.3v1.4c0,0,1,3.8,1.4,7.1
		c0.5,3.3,0.6,10.6,0.5,13.8s0.2,10.8,0.5,12.1c0.3,1.3,1.1,3,1,4.4s-0.3,3.5-0.3,3.5s-0.3,2.4-1.1,3.3c-0.8,1-2.9,2.7-2.9,3.8
		c0,1.1-0.2,3.2-0.2,3.2l0.8,6c0,0,1.1,9,0.8,11.3c-0.3,2.2-1.4,7.6-3.5,10.8s-5.6,9-6.5,10.5s-5.7,7.3-7.6,11.7
		c-1.9,4.4-2.9,10.2-2.9,10.2s-0.6,6.3-2.7,8.4c-2.1,2.1-5.1,2.8-7.6,2.8s-5.3-1-6.4-1c-0.8,0-4.9-0.5-7.1-0.4
		c-1,0.1-0.9,0.6-0.9,0.6s4.6,6.3,6,8.4c1.4,2.1,8.6,16.3,8.6,16.3l4.4,8.6c0,0,1,1.6,3,2.4c2.1,0.8,10.9,1.4,14.1,2.4
		c3.2,1,18.2,5.4,23,7.9c4.8,2.5,19.2,8.6,19.2,8.6s9.5,5.2,10.5,6.5c1,1.3,4.8,5.6,5.1,7.1c0.3,1.6,3,4.9,3.2,6.8
		c0.2,1.9,0.8,5.9,0.8,5.9s0.2,4.8,0.2,5.7s0.2,3.2,0.8,4.6c0.6,1.4,1.3,3.8,1.4,5.1s1.7,7.6,1.7,7.6s-1.1,9.9,0.5,16.1
		c1.6,6.2,2.3,16.1,2.3,16.1s3.2,34.5,3.2,36.8c0,1.8,0,5.7,0.1,7.1c0,0.4,0.1,0.8,0.2,1.1c0.2,0.8,0.6,2.1,0.5,2.4
		c-0.1,0.5-0.2,4.3,0.3,6.5c0.4,2,1.1,8.7,1.3,9.9c0,0.2,0,0.3,0.1,0.4c0.2,1.1,1.3,6.4,1.7,10.3c0.2,2.4-1.4,27.1-0.8,29.7l0,0.6
		c0.9,1.3,5.5,13.6,5.7,15.2c0.2,1.6,2.8,4.9,2.8,6.9c0.1,1.7,0.4,4.9,0.5,5.8c0,0.2,0,0.3,0,0.4c0,1,0.5,4.8,0.5,5.6
		c0,1-0.5,3.3,0.1,4.7c0.6,1.4,1.2,3.9,1.3,5.2c0.1,1.1,0.4,18.9,1.7,24.3c1.4,6.3,1.9,16.5,1.9,16.5s2.3,35.4,2.3,37.7
		c-0.1,1.7-0.1,5.1-0.1,6.9c0.1,0.7,0.1,1.3,0.2,2c0.2,0.8,0.4,1.8,0.3,2.1c-0.1,0.5-0.3,4.4,0.1,6.6c0.4,1.9,0.9,8.4,1,10
		c0,0.3,0.1,0.5,0.1,0.8c0.2,1.4,1.1,6.6,1.4,10.4c0.1,1.5-0.4,15.9-0.7,26.8c0,0.6-0.2,1.2-0.5,1.7H43.9h-5.3L38.5,625.6z"/>
	<path id="XMLID_3_" fill="#3D3F3E" d="M737.9,454.3c0,0-1.9-18-2.2-24.5s-2.2-16.8-2.2-16.8s-0.8-6.7-1-9.5
		c-0.2-2.8-1.3-6.7-1.3-6.7s-1.5-4.2-1.6-9.7c-0.2-12.6-0.8-28.6-1.3-35s-1.7-9-1.7-9s0.1-2.9-2.3-10.5c-2.4-7.7-2-14.8-2-14.8
		s0.1-13.4,0.1-17.4s-0.7-13.2-1.4-16.6s-3.4-13.8-3.4-13.8s-2.3-7.1-2.7-8.3c-0.4-1.2-4.7-10.7-5.1-11.4c-0.4-0.7-1.7-4.4-1.7-4.4
		s-2.2-4.3-2.9-5.9s-1.3-3.1-1.3-4.4s-0.2-3.6-0.6-4.9c-0.5-1.3-2.8-5.9-2.8-5.9s-0.6-1.3-0.6-2.5c0-1.2-0.5-3.9-0.5-3.9
		s-1-2.7-1.2-4c-0.2-1.3-1.3-3.3-1.3-3.3s-2.9-4.1-3.2-4.5c-0.3-0.4-0.2-2-0.4-3c-0.2-1-0.8-3.6-0.8-3.6s-1.6-5.6-1.7-6.2
		c-0.1-0.6-0.8-1.5-0.9-1.8s-4.2-2.8-4.2-2.8s-2.1-1.2-3.6-2.1c-1.6-0.9-4-1.3-5.4-1.9c-1.3-0.6-2.3-1.2-2.9-1.4
		c-0.6-0.2-4.5-1-8.9-1.7c-4.4-0.6-8.9-0.6-8.9-0.6s-3-1.2-4-1.9c-1-0.7-3.8-1.2-4.7-1.4c-0.9-0.2-4.3-1.5-4.3-1.5l-10-2.9
		c0,0-7.4-2.3-11.5-3.4c-4.1-1.1-8.5-1.7-12.4-2.1c-3.9-0.4-8.6-0.6-8.6-0.6s-1.6-1.4-1.9-1.7c-0.3-0.3-2-1.2-2.1-1.4
		c-0.2-0.2-2.9-2.6-3.3-3.3s-3.6-2.8-3.6-2.8s-1.7-0.7-3.6-3.2c-1.9-2.5-2.9-3.4-3.2-4c-0.3-0.6-4-2.3-4.5-2.7
		c-0.6-0.4-2.6-1.7-2.6-1.7s-0.3-11.2-0.4-15.1c-0.1-3.9,0.1-7.4,0.1-7.4s3.2-2.9,3.7-3.6c0.6-0.7,2.4-3.8,2.9-4.9
		c0.6-1.1,1-2.6,1.6-3.6c0.6-1,1-2.8,1.7-4.2s0.1-2.3,0.4-3.7s0.3-3.7,0.3-3.7s1.1-2.4,1.6-3c0.5-0.5,1.1-3.8,1.4-5.1s0.3-4.7,1-5.5
		c0.6-0.8,0.8-4,1-4.5c0.1-0.5,0.8-2.4,1.1-3.1c0.2-0.6,0.7-3.3,0.7-3.3s-0.1-4.1,0.2-6.7c1.1-7.9-0.7-13-0.7-14.4s-1.7-4.5-2.2-5.4
		s-1.2-3.2-1.2-4.1s-0.6-2.2-0.6-2.2s-2.2-3.9-2.2-4.9c0-1-0.6-2.9-0.6-2.9s-1.4-1.9-1.4-2.5s-1.1-1.6-1.1-1.6l-0.7-1.8
		c0,0-3.3-3.9-3.6-4.7c-0.3-0.7-0.2-2.6-0.2-2.6l-1.3-1.1l-2.1-3.2c0,0-1.3-0.5-2-1c-0.7-0.4-1.2-2-2-2.4c-4.1-2.2-9.1-6.8-9.1-6.8
		s-4.2-2.9-4.8-3.3c-1.6-1-3.3-0.7-3.3-0.7s-0.7-1.1-3.1-1.9s-4.7,0.4-6,0.6s-1.6,1.1-3.4,1.4S537.9,2,536.4,2s-3.5,1-3.5,1
		s-3.5-2.3-4.9-2.7s-4.9-0.2-6,0.2c-1.2,0.4-2.7,1.1-5.1,1.1s-5.4,1.3-6.3,2.1c-1,0.8-4.3,0.2-5.5,0.3s-1.5,1.1-2.6,1.5
		c-1.2,0.4-2.6,0.6-3.9,1.5c-1.3,0.8-3.4,2.3-4.2,2.9c-0.8,0.5-4.3,1.9-4.8,2.9s-1.9,1.4-3.7,2.5c-1.8,1.2-1.7,2.9-2.6,4.9
		s-2.5,2.4-3.2,3.1c-0.6,0.6-0.7,3-1,3.4c-0.2,0.4-0.8,3.3-1.5,4.3c-0.6,1.1-0.8,4.1-0.8,5.4c0,1.3-0.1,3.7-0.1,5
		c0,1.3-0.3,5.4-0.3,6.2c0,0.8-0.4,4.7-1.2,6.9c-0.7,2.2-1.1,4-1.1,5.7c0,1.7,0.6,4.2,0.6,4.2s-1.7,12.4-2.3,16.6
		c-0.6,4.2,1,8.8,1,10.9c0,2.1-1.1,5.5-1.7,7.2c-0.6,1.7-1.8,7.9-1.9,11.9c-0.1,4,1.4,7.2,2,9s1.9,8.2,3.9,13.1
		c2,4.9,7.4,14.2,7.4,14.2s3.4,5.4,3.9,7.8c0.5,2.4,1.4,6.7,3.1,9.1c1.7,2.4,4.1,4.3,4.1,4.3l-1.4,1.6c0,0-2.3,2-3.1,2.6
		c-0.7,0.6-2.5,2.4-6.4,3.1s-5.9,1.9-7.1,2.2c-1.3,0.3-4.6,1.5-4.6,1.5s-5.3,2.1-8.6,3.2c-5.8,1.8-4.5,1.8-7.8,2.8s-5.7,1.8-5.7,1.8
		s-8.2,3.5-8.8,3.6s-4.6,2.1-7.6,2.6c-3,0.6-5.2,1-6.3,1.6s-5.2,2-9.5,3.7s-7.8,4.4-8.6,5.2c-0.8,0.9-2.6,1.3-3.8,2.5
		c-1.2,1.2-1.3,5.3-1.5,6.1c0,0,0,0-0.1,0.1c0,0-1.2,7.8-1.2,9c-0.1,1.5-3,11.9-4.6,28.1c-0.3,2.7-7.3,34.5-7.2,35.3
		c0.1,0.8,0.6,2.4,0.6,3c0,0.6,2.5,15,0.3,21.7c-2.2,6.7-3.8,37.3-3.8,37.3c-0.1,2-0.9,5.5-1.4,9.1c-0.5,3.3,0.1,26.3,0.1,27
		c-0.2,2.8-11.8,78.1-11.4,87.3c0.3,9.2-1.6,83.2,1.8,83.1c0,0.7,0,23.2,0.2,23.7c0.4,1.4,6.8,3.1,6,5.5c-1.1,3.3-1.5,10.5-1.5,10.5
		s1.8,5.2,3.2,6.8s11.2,16.8,11.2,16.8l6,3.3c0,0,3.7,1.9,7.8,1.9c2.3,0,3.4,0.4,6.8,0.5c1.6,0,2.8,3.5,2.8,3.5s262.4,0,262.6,0
		c0.2,0,0.2-4.9,1-6.9s1.3-4,1.3-4s-0.2-1.3,0.8-1.9c1-0.6,1.4,0.5,1.7,0.5s2.4,1.6,3.4,1.9c1,0.3,1.1,0.6,1.3,1.2
		c0.2,0.6,1.2,1.3,1.7,1.6s1,1.2,1,1.2s0,1-0.2,2.4c-0.2,1.4,0,3.6,0,3.6h26l1.1-2.1c0,0,1.7-0.2,2.5-3.2c0.8-3-0.6-10.6-0.6-10.6
		l-0.2-11.2c0,0,11.2-0.2,12.1-0.2c0.8,0,2.1-0.4,2.1-0.4l-0.2-53l0.2-24.2l1.3-26c0,0,0.6-14.5,1.3-23.1
		C739.6,462.8,737.9,454.3,737.9,454.3z M667.5,465.7c0-1.7-0.3-5.9-0.3-7.1s-0.8-5.9-1-8.1c-0.2-2.2-0.6-7.1-0.4-8.4
		c0.2-1.3-0.8-7.2-1-9.6c-0.2-2.4-0.9-7.6-0.9-7.6s-1-9.9-1.1-10.7s-2.3-9.3-2.3-10.7s-0.2-5,0-6.3c0.2-1.3,0.6-6,0.5-7.5
		c-0.1-1.4,0.5-7.1,0.5-7.1s-0.1-1.1,0.5-1.1s1,2,1.7,3.3c0.7,1.3,1.7,3.4,2.4,5.5c0.6,2.1,1.7,5.3,2.8,7.2c1,1.9,0.2,1.9,1,3.6
		c0.8,1.7,0.9,3.3,1,4.8c0.1,1.4,0,16.8,0.2,20.1c0.2,3.3,1.3,11.7,1.6,14.4s1.2,6.1,1.3,8.1s0.6,8.6,0.6,10.6s0.2,7.6,0.4,9.2
		c0.2,1.6,1.2,15.9,1.2,15.9s0.2,2.1-0.4,2.1s-1.3-2.2-1.3-2.2s-2.8-6.6-3.6-9c-0.9-2.5-1.5-4.5-1.8-5.1
		C668.5,469.5,667.5,467.5,667.5,465.7z M676.4,515.2c-0.1,0.5-0.9,15.2-0.9,16.7s-0.3,12.7-0.3,14.3c0,1.6,0.3,9.5,0.1,11.6
		c-0.2,2.1-1,4.3-1.1,5.8c-0.1,1.5-0.3,5.3-0.3,6.5s-0.8,7.3-1.2,7.3s0.1-13.2,0.1-13.4c0-0.3,0-20.1,0-23.3s-1.5-35.6-3.2-45.4
		c0,0-0.4-1.4,0.7-1.5c1.1-0.1,2.3-0.1,2.3-0.1h2.9c0,0,0.6-0.1,0.6,0.3S676.4,514.6,676.4,515.2z M440.3,431.9
		c0-1.2,1.6,13.6-0.2,30.2c-1.5,13.7-4.8,33.5-4.8,33.5C432.1,468.1,440.3,434.1,440.3,431.9z M412.3,607.4c0,0-3.5-4.5,0.2-6
		s5.4-1.5,5.4-1.5L412.3,607.4z"/>
</g>
</svg>
