<?xml version="1.0" encoding="utf-8"?>
<!-- Generator: Adobe Illustrator 19.1.0, SVG Export Plug-In . SVG Version: 6.00 Build 0)  -->
<svg version="1.1" id="Layer_1" xmlns="http://www.w3.org/2000/svg" xmlns:xlink="http://www.w3.org/1999/xlink" x="0px" y="0px"
	 width="806px" height="765.1px" viewBox="-96 118.9 806 765.1" style="enable-background:new -96 118.9 806 765.1;"
	 xml:space="preserve">
<style type="text/css">
	.st0{fill:#BFC0C0;}
</style>
<g>
	<path class="st0" d="M350.4,873c2.1-0.1,3.3-0.8,3.3-3.3c-0.1-3.5,0.2-6.9,0.3-10.4c0.1-10.1,0.1-20.2,0-30.3
		c0-1.4-0.6-3.1-1.5-4.3c-3-4.3-6.3-8.4-9.4-12.6 M181.6,704.5c-2-0.1-4-0.6-5.7,1.4c-12.6,15.2-25.3,30.3-38,45.4
		c-22,26.1-43.9,52.3-66,78.4c-1.7,2.1-2.6,3.9-2.4,6.9c0.6,7.7,0.5,15.5,0.7,23.2c0.1,5.7,0.4,11.3,0.5,17c0,1.4,0.3,2.4,2.1,2.4
		c1,0,2,0.3,2.9,0.4 M262.3,705.7c-1.4-1.9-2.7-2.5-4.9-2.4 M261.8,641.9c-2.1,0.1-2.4,1-2.4,2.7c0.1,5,0,10,0,15l0,0
		c0,4.8,0.1,9.5,0,14.3c0,1.8,0.5,3.1,1.6,4.5c8.2,10.2,16.3,20.4,24.5,30.6c11.6,14.3,23.3,28.5,34.9,42.8
		c10.2,12.6,20.4,25.2,30.7,37.8c0.7,0.8,2,1.7,3,1.6c3.8-0.2,7.6-0.9,11.3-1.3c11.7-1.3,23.4-2.5,35.1-4
		c12.9-1.6,25.8-3.2,38.7-5.1c13.1-2,26.2-4.1,39.2-6.5c12.5-2.3,24.9-4.8,37.3-7.4c9.4-2,18.8-4,28.1-6.3c10.5-2.6,21-5.5,31.4-8.3
		c4.3-1.1,4.3-1.2,4.4-5.8c0.2-6.3,0.4-12.7,0.6-19c0.2-5.9,0.4-11.8,0.4-17.7c0-0.7-0.8-1.8-1.4-2 M372.5,645.4
		c-12.5-3.8-25-7.6-37.6-11.4c-0.6-0.2-1.3-0.2-2-0.1 M574.4,674.1c2.9,0.7,6.2,1.7,8.9,1c11.2-2.7,22.2-5.8,33.2-9.2
		c10.9-3.4,21.7-7.2,32.4-11.2c14.7-5.5,28.6-12.4,41.1-22c1.2-1,1.9-1.9,1.9-3.5c0-2.8,0.1-5.7,0.2-8.5c0.4-8.5,1-16.9,1.4-25.4
		c0-0.5-0.8-1.5-1.3-1.6 M397.9,564.4c-5.4-0.2-10.7-2-16.3-0.4c-8.6,2.5-17.3,4.3-26.1,6.1c-6.2,1.3-12.4,2.3-18.6,3
		c-2.5,0.3-3,1-3,3.3c0.1,5.6,0,11.2,0,16.8c0,4.9,0,9.8,0,14.8c7.2,2,14,3.9,20.9,5.8 M682.9,564.5c6.6,0.5,13.4,2.2,18.3-4.4
		c0.2-0.3,0.7-0.5,0.9-0.8c1.9-3,5.2-6,5.5-9.2c1.3-12.1,1.6-24.2,2.3-36.7c-0.1-0.7-0.1-1.7-0.4-2.6c-1.5-4.1-4.8-6.4-8.1-8.8
		c-0.4-0.3-1.1-0.3-1.7-0.3c-6.9-0.2-13.8-0.3-20.7-0.5 M700.7,477.1c2.2,0,2.7-0.9,2.7-2.8c0-2.5,0.1-5,0.2-7.5
		c0.4-7.1,0.9-14.3,1.2-21.4c0-0.6-0.6-1.7-1.1-1.8c-6.5-1.7-12.9-3.7-19.5-4.9c-8.2-1.6-16.5-2.8-24.8-3.9c-8-1-16-1.7-24-2.2
		 M399.7,436c-0.4,0-0.8,0.1-1.5,0.1c-0.1,0.8-0.2,1.5-0.2,2.1c-0.1,7.9-0.3,15.8-0.4,23.8c-0.1,3.9,0,3.7,3.7,5.3
		c1.8,0.7,3.9,1.9,4.6,3.5c0.7,1.4,1.2,1.8,2.6,1.8 M-95.2,162.3c0.1,0,0.1,0,0.2,0c0,3.2-0.1,6.5,0.1,9.7c0,0.7,0.9,1.8,1.6,1.9
		c4.9,0.8,9.9,1.5,14.8,2.2c7.6,1.1,15.2,2.2,22.9,3.3c5.6,0.8,11.2,1.5,16.7,2.2c6.4,0.8,12.8,1.6,19.2,2.4
		c8.1,0.9,16.1,1.8,24.2,2.6c6.1,0.6,12.2,1.2,18.3,1.9c7.9,0.9,15.8,2.2,23.3-1.8c0.8-0.4,1.7-0.7,2.6-1c13.5-4.4,27-8.8,40.4-13.3
		s26.7-9.2,40.1-13.6c1.7-0.6,2-1.2,2-2.8c-0.2-7.2-0.3-14.5-0.5-21.7c0-1.7,0.4-3.9-0.4-5.1c-0.8-1-3.1-1-4.7-1.3
		c-7-1.2-14.1-2.2-21-3.4c-7.5-1.3-14.9-2.8-22.4-4.3c-4-0.8-7.8-1.9-12-1.1c-6.4,1.3-12.9,2.2-19.3,3.3c-9,1.5-18,2.9-26.9,4.4
		c-8.4,1.4-16.8,2.8-25.2,4.1c-6.9,1.1-13.9,2.2-20.8,3.4c-8.4,1.4-16.8,2.8-25.2,4.1c-8.2,1.3-16.3,2.6-24.5,3.9
		c-7.4,1.4-14.6,2.7-21.9,3.7c-2,0.3-2.5,1-2.4,2.8C-95.7,153.3-95.5,157.8-95.2,162.3z M406,381.4c-12.4,0.1-24.8,0.3-37.2,0.4
		c-2,0-2.8,0.5-2.8,2.6c0.1,7.9,0.1,15.8-0.1,23.8c0,2.2,0.9,2.7,2.8,2.7c4.4,0.1,8.8,0.3,13.2,0.6c6.4,0.4,12.7,1.4,19.1,1.4
		 M640.6,410.9c0.7,0,1.3,0,2.5,0c0.4-9.3,0.8-18.2,1.3-27.2c0.1-1.4-0.6-1.9-1.9-1.9c-6.8-0.2-13.6-0.7-20.4-0.8
		c-16.7-0.4-33.5-0.9-50.2-1 M166.5,238.8c0.8,0,1.5,0.2,2.2,0c1.2-0.3,2.7-0.5,3.4-1.2c7.2-7.8,14.2-15.6,21.2-23.6
		c0.7-0.8,1.3-2.2,1.3-3.3c0-8.2-0.2-16.3-0.4-24.5c0-0.1,0-0.2,0-0.2c-0.6-0.6-1.1-1.7-1.8-1.7c-12.6-0.8-25.2-1.3-37.8-2.1
		c-6-0.4-12.1-0.9-18.1-1.4c-1.9-0.2-3.9-0.7-5.7-0.3c-3.6,0.8-7.1,2.1-10.7,3.2c-5.5,1.7-10.9,3.3-16.4,5c-7,2.1-14,4.1-20.9,6.2
		c-7.6,2.3-15.2,4.6-22.8,6.9c-7.4,2.2-14.9,4.4-22.3,6.6c-0.5,0.2-1.2,1-1.2,1.6c0.1,6,0.4,12,0.6,17.9c0.1,1.7,0.2,3.5,0.4,5.4
		c1.5,0.1,2.9,0.2,4.4,0.3C49.9,234.1,121.9,239.3,166.5,238.8z M545.2,360.4c0.3-8.2,0.6-16,1-23.9c0.1-1.7-0.5-2.2-2.1-2.2
		c-5-0.1-10-0.3-15-0.4c-15.5-0.4-31-0.7-46.5-1c-14.9-0.3-29.8-0.7-44.7-1c-15.7-0.3-31.5-0.8-47.2-1c-14.4-0.1-28.8,0.2-43.2,0.4
		c-9.2,0.1-18.3,0.4-27.5,0.5c-1.8,0-2.6,0.4-2.5,2.4c0,7.6,0,15.3-0.2,22.9c0,2.5,1,3.2,3.4,3.3c31.4,0.1,62.9,0.4,94.3,0.4
		c21.9,0,43.8-0.2,65.7-0.3c20.4-0.1,40.9-0.1,61.3-0.1C543,360.4,544,360.4,545.2,360.4z M258.4,284c0,8.9,0,17.6,0.1,26.2
		c0,0.6,0.8,1.5,1.3,1.7c4.5,1.1,9,2.1,13.5,3c6.3,1.3,12.6,2.6,19,3.8c4.9,0.9,9.9,1.9,14.9,2.1c7.6,0.3,15.3-0.2,23-0.3
		c14.4-0.2,28.8-0.3,43.2-0.5c10.6-0.1,21.2-0.3,31.7-0.5c7.2-0.1,14.5-0.4,21.7-0.5c1.9,0,2.2-0.8,2.2-2.4c0-6.6,0-13.2,0.1-19.8
		c0-0.6-0.1-1.1-0.2-1.9c-7-0.8-13.9-1.6-20.8-2.4c-4.3-0.5-8.5-1-12.8-1.5c-6.8-0.7-13.7-1.4-20.5-2.2c-6.5-0.7-13-1.6-19.5-2.3
		c-6.8-0.8-13.7-1.5-20.5-2.1c-7.1-0.7-14.2-1.8-21.3-1.8c-14.6,0-29.1,0.6-43.7,1C266.2,283.5,262.5,283.8,258.4,284z M236.9,280.3
		L236.9,280.3c21,0,42.1,0,63.1,0.1c2.2,0,3-0.6,2.9-2.8c-0.1-6-0.1-12,0-18c0-1.7-0.6-2.7-2.2-3.5c-12.9-6.5-25.8-13.1-38.7-19.8
		c-2.7-1.4-5.5-2.2-8.6-1.9c-3.5,0.3-7,0.5-10.5,0.4c-15.3-0.1-30.7-0.3-46-0.4c-1.2,0-2.8,0.4-3.6,1.1
		c-7.3,6.7-14.5,13.5-21.7,20.3c-0.8,0.7-1.3,2.1-1.3,3.2c0,5.9,0.2,11.8,0.4,17.7c0.1,3.6,0.2,3.6,3.8,3.6
		C195.3,280.3,216.1,280.3,236.9,280.3z"/>
	<path class="st0" d="M257.4,703.3c2.2-0.1,3.5,0.5,4.9,2.4c0,0,87.1,114.8,90.1,119.1c0.8,1.2,1.5,2.8,1.5,4.3
		c0.1,10.1-0.3,37.2-0.3,40.7c0.1,2.5-1.2,3.1-3.3,3.3c-2.7,0.2-3.7,0.8-6.4,1c-49.3,9.5-144.7,10.9-194.8,9.7
		c-44.8-1.1-73.5-4.2-73.5-4.2c-1-0.1-2-0.4-2.9-0.4c-1.8,0.1-2-1-2.1-2.4c-0.1-5.7-0.6-32.5-1.2-40.2c-0.2-2.9,0.6-4.8,2.4-6.9
		c22-26.1,91.4-108.6,104-123.8c1.7-2,3.7-1.5,5.7-1.4C181.6,704.5,222.1,707,257.4,703.3z"/>
	<path class="st0" d="M332.9,633.9c0.6-0.1,1.4-0.1,2,0.1c12.5,3.8,25,7.6,37.6,11.4l206.8,62.5c0.7,0.2,1.4,1.3,1.4,2
		c0,5.9-0.2,11.8-0.4,17.7c-0.2,6.3-0.5,12.7-0.6,19c-0.1,4.6-0.1,4.6-4.4,5.8c-10.5,2.8-20.9,5.7-31.4,8.3
		c-9.3,2.3-18.7,4.3-28.1,6.3c-12.4,2.6-24.8,5.1-37.3,7.4c-13,2.4-26.1,4.5-39.2,6.5c-12.9,1.9-25.8,3.5-38.7,5.1
		c-11.7,1.4-23.4,2.6-35.1,4c-3.8,0.4-7.5,1.1-11.3,1.3c-1,0.1-2.3-0.8-3-1.6c-10.3-12.6-20.5-25.2-30.7-37.8
		c-11.6-14.3-23.3-28.5-34.9-42.8c-8.2-10.2-16.3-20.4-24.5-30.6c-1.1-1.4-1.6-2.7-1.6-4.5c0.1-4.8,0-9.5,0-14.3l0,0c0-5,0-10,0-15
		c0-1.7,0.2-2.6,2.4-2.7C261.8,641.9,297.4,639.5,332.9,633.9z"/>
	<path class="st0" d="M574.4,674.1c2.9,0.7,6.2,1.7,8.9,1c11.2-2.7,22.2-5.8,33.2-9.2c10.9-3.4,21.7-7.2,32.4-11.2
		c14.7-5.5,28.6-12.4,41.1-22c1.2-1,1.9-1.9,1.9-3.5c0-2.8,0.1-5.7,0.2-8.5c0.4-8.5,1-16.9,1.4-25.4c0-0.5-0.8-1.5-1.3-1.6
		c0,0-292.8-29.5-294.2-29.4c-5.4-0.2-10.7-2-16.3-0.4c-8.6,2.5-17.3,4.3-26.1,6.1c-6.2,1.3-12.4,2.3-18.6,3c-2.5,0.3-3,1-3,3.3
		c0.1,5.6,0,11.2,0,16.8c0,4.9,0,9.8,0,14.8c7.2,2,14,3.9,20.9,5.8L574.4,674.1z"/>
	<path class="st0" d="M413.9,496.6l265.2,4.6c6.9,0.1,13.8,0.3,20.7,0.5c0.6,0,1.3,0,1.7,0.3c3.3,2.4,6.6,4.8,8.1,8.8
		c0.3,0.9,0.3,1.9,0.4,2.6c-0.7,12.4-1.1,24.6-2.3,36.7c-0.3,3.2-3.6,6.2-5.5,9.2c-0.2,0.3-0.7,0.5-0.9,0.8
		c-4.9,6.6-11.8,4.9-18.3,4.4l-295.7-26.3c-1.7-0.1-2.4-0.9-2.4-2.5c0.2-7.8,0.4-15.6,0.6-23.5c0-1.7,0.2-3.5,0.1-5.2
		c-0.1-1.5,0.3-2.3,2-2.7c3.9-0.9,10.5-3.4,18-7.2c0,0,1-0.8,2.9-0.8S413.9,496.6,413.9,496.6z"/>
	<path class="st0" d="M700.7,477.1c2.2,0,2.7-0.9,2.7-2.8c0-2.5,0.1-5,0.2-7.5c0.4-7.1,0.9-14.3,1.2-21.4c0-0.6-0.6-1.7-1.1-1.8
		c-6.5-1.7-12.9-3.7-19.5-4.9c-8.2-1.6-16.5-2.8-24.8-3.9c-8-1-16-1.7-24-2.2L399.7,436c-0.4,0-0.8,0.1-1.5,0.1
		c-0.1,0.8-0.2,1.5-0.2,2.1c-0.1,7.9-0.3,15.8-0.4,23.8c-0.1,3.9,0,3.7,3.7,5.3c1.8,0.7,3.9,1.9,4.6,3.5c0.7,1.4,1.2,1.8,2.6,1.8
		L700.7,477.1z"/>
	<path class="st0" d="M-95.2,162.3c-0.2-4.5-0.5-9-0.8-13.5c-0.1-1.8,0.3-2.6,2.4-2.8c7.3-1,14.5-2.3,21.8-3.5
		c8.2-1.3,16.3-2.6,24.5-3.9c8.4-1.4,16.8-2.8,25.2-4.1c6.9-1.1,13.9-2.2,20.8-3.4c8.4-1.4,16.8-2.8,25.2-4.1c9-1.5,18-2.9,26.9-4.4
		c6.4-1.1,12.9-2,19.3-3.3c4.2-0.8,8,0.3,12,1.1c7.5,1.4,14.9,3,22.4,4.3c7,1.2,14,2.2,21,3.4c1.6,0.3,3.9,0.2,4.7,1.3
		c0.9,1.1,0.4,3.3,0.4,5.1c0.2,7.2,0.3,14.5,0.5,21.7c0,1.5-0.3,2.2-2,2.8c-13.4,4.4-26.7,9.1-40.1,13.6c-13.5,4.5-27,8.9-40.4,13.3
		c-0.9,0.3-1.8,0.5-2.6,1c-7.5,3.9-15.5,2.6-23.3,1.8c-6.1-0.7-12.2-1.2-18.3-1.9c-8.1-0.9-16.1-1.7-24.2-2.6
		c-6.4-0.7-12.8-1.5-19.2-2.4c-5.6-0.7-11.2-1.4-16.7-2.2c-7.6-1.1-15.2-2.2-22.9-3.3c-4.9-0.7-9.9-1.3-14.8-2.2
		c-0.6-0.2-1.5-1.3-1.6-2c-0.1-3.3,0-6.5,0-9.8C-95.1,162.3-95.2,162.3-95.2,162.3z"/>
	<path class="st0" d="M406,381.4c-12.4,0.1-24.8,0.3-37.2,0.4c-2,0-2.8,0.5-2.8,2.6c0.1,7.9,0.1,15.8-0.1,23.8
		c0,2.2,0.9,2.7,2.8,2.7c4.4,0.1,8.8,0.3,13.2,0.6c6.4,0.4,12.7,1.4,19.1,1.4l239.5-2.1c0.7,0,1.3,0,2.5,0
		c0.4-9.3,0.8-18.2,1.3-27.2c0.1-1.4-0.6-1.9-1.9-1.9c-6.8-0.2-13.6-0.7-20.4-0.8c-16.7-0.4-33.5-0.9-50.2-1L406,381.4z"/>
	<path class="st0" d="M545.2,360.4c-1.2,0-2.2,0-3.2,0c-20.4,0-40.9,0-61.3,0.1c-21.9,0.1-43.8,0.3-65.7,0.3
		c-31.4-0.1-62.9-0.3-94.3-0.4c-2.5,0-3.5-0.7-3.4-3.3c0.1-7.6,0.2-15.3,0.2-22.9c0-2,0.8-2.3,2.5-2.4c9.2-0.1,18.3-0.4,27.5-0.5
		c14.4-0.2,28.8-0.5,43.2-0.4c15.7,0.1,31.5,0.6,47.2,1c14.9,0.3,29.8,0.7,44.7,1c15.5,0.3,31,0.7,46.5,1c5,0.1,10,0.4,15,0.4
		c1.6,0,2.2,0.5,2.1,2.2C545.9,344.4,545.6,352.2,545.2,360.4z"/>
	<path class="st0" d="M258.4,284c4-0.2,7.8-0.5,11.5-0.6c14.6-0.4,29.1-1,43.7-1c7.1,0,14.2,1.1,21.3,1.8c6.8,0.7,13.7,1.4,20.5,2.1
		c6.5,0.7,13,1.6,19.5,2.3c6.8,0.8,13.7,1.4,20.5,2.2c4.3,0.5,8.5,1,12.8,1.5c6.9,0.8,13.8,1.6,20.8,2.4c0.1,0.8,0.2,1.3,0.2,1.9
		c0,6.6-0.1,13.2-0.1,19.8c0,1.6-0.3,2.4-2.2,2.4c-7.2,0.1-14.5,0.3-21.7,0.5c-10.6,0.2-21.2,0.4-31.7,0.5
		c-14.4,0.2-28.8,0.3-43.2,0.5c-7.7,0.1-15.3,0.6-23,0.3c-5-0.2-10-1.2-14.9-2.1c-6.3-1.1-12.7-2.5-19-3.8c-4.5-0.9-9-1.9-13.5-3
		c-0.6-0.1-1.3-1.1-1.3-1.7C258.4,301.5,258.4,292.9,258.4,284z"/>
	<path class="st0" d="M236.9,280.3c-20.8,0-41.6,0-62.3,0c-3.6,0-3.6,0-3.8-3.6c-0.2-5.9-0.4-11.8-0.4-17.7c0-1.1,0.5-2.5,1.3-3.2
		c7.2-6.8,14.4-13.6,21.7-20.3c0.9-0.8,2.4-1.1,3.6-1.1c15.3,0.1,30.7,0.3,46,0.4c3.5,0,7-0.2,10.5-0.4c3.1-0.2,5.8,0.5,8.6,1.9
		c12.8,6.7,25.7,13.3,38.7,19.8c1.6,0.8,2.2,1.8,2.2,3.5c0,6-0.1,12,0,18c0,2.2-0.8,2.8-2.9,2.8"/>
</g>
</svg>
