<?xml version="1.0" encoding="utf-8"?>
<!-- Generator: Adobe Illustrator 19.1.0, SVG Export Plug-In . SVG Version: 6.00 Build 0)  -->
<svg version="1.1" id="Layer_1" xmlns="http://www.w3.org/2000/svg" xmlns:xlink="http://www.w3.org/1999/xlink" x="0px" y="0px"
	 width="565px" height="565px" viewBox="-699.5 60.5 565 565" style="enable-background:new -699.5 60.5 565 565;"
	 xml:space="preserve">
<style type="text/css">
	.st0{fill:#F2F2F2;}
	.st1{fill:#FFFFFF;}
</style>
<g>
	<circle class="st0" cx="-417" cy="343" r="282.5"/>
	<path class="st1" d="M-417,601.9c-142.7,0-258.9-116.1-258.9-258.9S-559.7,84.1-417,84.1S-158.1,200.2-158.1,343
		S-274.3,601.9-417,601.9z M-417,91c-138.9,0-252,113-252,252s113,252,252,252c138.9,0,252-113,252-252S-278.1,91-417,91z"/>
	<g>
		<path class="st1" d="M-455.7,331.4l-0.4-0.9c-0.1-0.1-25.4-53.3-40.8-83.8c-5-9.9-9.3-17.2-12.8-22.5c-3.1-4.6-8.2-15.1-23.1-15.1
			h-48.3v-14.2h56.4c22.4,0,30.3,14.4,31.3,15.9c11.1,17.6,74,118.3,74,118.3l1.4,2.3L-455.7,331.4L-455.7,331.4z"/>
		<path class="st1" d="M-496.1,479.1c-4.5-0.2-18.2-0.8-18.2-19.5V254.1c0-33.4-29.1-50.1-29.1-50.1v256.9c0,0.1,0,0.4,0,1.1
			c-0.1,4.1-0.9,17.1-15.9,17.1h-19.1V493h113.3v-13.9H-496.1z"/>
		<path class="st1" d="M-334.1,209.2c-4.6,0-13,0-13,0v-14.4h96.7v14.8c0,0-4.8,0-15.5,0c-20.7,0-19.7,15.4-19.7,20.3V463h-29V230
			C-314.5,230-313.1,209.2-334.1,209.2"/>
		<path class="st1" d="M-457.2,193.5c69.6,0,95.2,36.6,95.9,84.3v6.5c0,59.9-48.3,81.4-101.1,81.4h-40.1v-13.3h37
			c81.9,0,78.9-65.2,78.9-65.9v-9.3c0,0,4.6-70.5-77.5-70.5h-2.3h-10.9v-13.1h20.1V193.5z"/>
		<path class="st1" d="M-310.9,478.9c-17.8,0-24.8-13.6-24.8-13.6c-15.6-21.5-58.6-87.7-58.6-87.7h-34.5c0,0,41.4,63.8,61.8,92.6
			c0,0,14.1,22.8,43,22.8c35.7,0,54.9,0,54.9,0v-14.1L-310.9,478.9L-310.9,478.9z"/>
	</g>
</g>
</svg>
