<?xml version="1.0" encoding="utf-8"?>
<!-- Generator: Adobe Illustrator 19.1.0, SVG Export Plug-In . SVG Version: 6.00 Build 0)  -->
<svg version="1.1" id="Layer_1" xmlns="http://www.w3.org/2000/svg" xmlns:xlink="http://www.w3.org/1999/xlink" x="0px" y="0px"
	 width="565px" height="565px" viewBox="-217 218 565 565" style="enable-background:new -217 218 565 565;" xml:space="preserve">
<style type="text/css">
	.st0{opacity:0.8;}
	.st1{opacity:0.85;fill:#AAAAAA;enable-background:new    ;}
	.st2{opacity:0.8;fill:#FFFFFF;enable-background:new    ;}
	.st3{opacity:0.85;fill:#FFFFFF;enable-background:new    ;}
</style>
<g class="st0">
	<path class="st1" d="M65.5,218C-90.5,218-217,344.5-217,500.5S-90.5,783,65.5,783S348,656.5,348,500.5S221.5,218,65.5,218z"/>
	<path class="st2" d="M65.5,759.4c-142.7,0-258.9-116.1-258.9-258.9S-77.2,241.6,65.5,241.6s258.9,116.1,258.9,258.9
		S208.2,759.4,65.5,759.4z"/>
	<path class="st1" d="M65.5,248.5c-138.9,0-252,113-252,252s113,252,252,252c138.9,0,252-113,252-252S204.4,248.5,65.5,248.5z"/>
	<path class="st3" d="M17.4,650.5H-95.9v-13.9h19.1c15,0,15.8-13,15.9-17.1c0-0.7,0-1,0-1.1V366.6h-37.7v-14.2h56.4
		c22.4,0,30.3,14.4,31.3,15.9c11.1,17.6,74,118.3,74,118.3l1.4,2.3H26.8l-0.4-0.9c-0.1-0.1-25.4-53.3-40.8-83.8
		c-5-9.9-9.3-17.2-12.8-22.5c-3.1-4.6-8.2-15.1-23.1-15.1h-3.6c8.6,7.3,22.1,22.2,22.1,45v205.5c0,18.7,13.7,19.3,18.2,19.5h31
		V650.5z"/>
	<path class="st3" d="M-20,523.2v-13.3h37c81.9,0,78.9-65.2,78.9-65.9v-9.3c0,0,4.6-70.5-77.5-70.5h-2.3H5.2v-13.1h20.1V351
		c69.6,0,95.2,36.6,95.9,84.3v6.5c0,59.9-48.3,81.4-101.1,81.4C20.1,523.2-20,523.2-20,523.2z"/>
	<path class="st3" d="M213.4,650.5c0,0-19.2,0-54.9,0c-28.9,0-43-22.8-43-22.8c-20.4-28.8-61.8-92.6-61.8-92.6h34.5
		c0,0,43,66.2,58.6,87.7c0,0,7,13.6,24.8,13.6h41.8L213.4,650.5L213.4,650.5z"/>
	<path class="st3" d="M232.1,367.1c0,0-4.8,0-15.5,0c-20.7,0-19.7,15.4-19.7,20.3v233.1h-29v-233c0.1,0,1.5-20.8-19.5-20.8
		c-4.6,0-13,0-13,0v-14.4h96.7V367.1z"/>
</g>
</svg>
