<?xml version="1.0" encoding="utf-8"?>
<!-- Generator: Adobe Illustrator 19.1.0, SVG Export Plug-In . SVG Version: 6.00 Build 0)  -->
<svg version="1.1" id="Layer_1" xmlns="http://www.w3.org/2000/svg" xmlns:xlink="http://www.w3.org/1999/xlink" x="0px" y="0px"
	 width="565px" height="565px" viewBox="219 -218 565 565" style="enable-background:new 219 -218 565 565;" xml:space="preserve">
<style type="text/css">
	.st0{opacity:0.66;fill:#999999;}
</style>
<g>
	<path class="st0" d="M501.5-218C345.5-218,219-91.5,219,64.5S345.5,347,501.5,347S784,220.5,784,64.5S657.5-218,501.5-218z
		 M501.5,323.4c-142.7,0-258.9-116.1-258.9-258.9s116.2-258.9,258.9-258.9S760.4-78.3,760.4,64.5S644.2,323.4,501.5,323.4z"/>
	<path class="st0" d="M501.5-187.5c-138.9,0-252,113-252,252s113,252,252,252c138.9,0,252-113,252-252S640.4-187.5,501.5-187.5z
		 M453.4,214.5H340.1v-13.9h19.1c15,0,15.8-13,15.9-17.1c0-0.7,0-1,0-1.1V-69.4h-37.7v-14.2h56.4c22.4,0,30.3,14.4,31.3,15.9
		c11.1,17.6,74,118.3,74,118.3l1.4,2.3h-37.7l-0.4-0.9c-0.1-0.1-25.4-53.3-40.8-83.8c-5-9.9-9.3-17.2-12.8-22.5
		c-3.1-4.6-8.2-15.1-23.1-15.1h-3.6c8.6,7.3,22.1,22.2,22.1,45v205.5c0,18.7,13.7,19.3,18.2,19.5h31V214.5z M416,87.2V73.9h37
		c81.9,0,78.9-65.2,78.9-65.9v-9.3c0,0,4.6-70.5-77.5-70.5h-2.3h-10.9v-13.1h20.1V-85c69.6,0,95.2,36.6,95.9,84.3v6.5
		c0,59.9-48.3,81.4-101.1,81.4H416z M649.4,214.5c0,0-19.2,0-54.9,0c-28.9,0-43-22.8-43-22.8c-20.4-28.8-61.8-92.6-61.8-92.6h34.5
		c0,0,43,66.2,58.6,87.7c0,0,7,13.6,24.8,13.6h41.8V214.5z M668.1-68.9c0,0-4.8,0-15.5,0c-20.7,0-19.7,15.4-19.7,20.3v233.1h-29
		v-233c0.1,0,1.5-20.8-19.5-20.8c-4.6,0-13,0-13,0v-14.4h96.7V-68.9z"/>
</g>
</svg>
