<?xml version="1.0" encoding="utf-8"?>
<!-- Generator: Adobe Illustrator 19.1.0, SVG Export Plug-In . SVG Version: 6.00 Build 0)  -->
<svg version="1.1" id="Layer_1" xmlns="http://www.w3.org/2000/svg" xmlns:xlink="http://www.w3.org/1999/xlink" x="0px" y="0px"
	 width="272px" height="89px" viewBox="-563 16 272 89" style="enable-background:new -563 16 272 89;" xml:space="preserve">
<style type="text/css">
	.st0{fill:#C2A97D;}
	.st1{fill:#FFFFFF;}
</style>
<circle class="st0" cx="-351.9" cy="48" r="31.1"/>
<path class="st1" d="M-351.9,76.4c-15.7,0-28.5-12.8-28.5-28.5s12.8-28.5,28.5-28.5c15.7,0,28.5,12.8,28.5,28.5
	S-336.2,76.4-351.9,76.4z M-351.9,20.2c-15.3,0-27.7,12.4-27.7,27.7s12.4,27.7,27.7,27.7c15.3,0,27.7-12.4,27.7-27.7
	S-336.7,20.2-351.9,20.2z"/>
<g>
	<path class="st1" d="M-356.2,46.7L-356.2,46.7c-0.1-0.1-2.8-6-4.5-9.3c-0.6-1.1-1-1.9-1.4-2.5c-0.3-0.5-0.9-1.7-2.5-1.7h-5.3l0-1.6
		h6.2c2.5,0,3.3,1.6,3.4,1.8c1.2,1.9,8.1,13,8.1,13l0.2,0.3H-356.2z"/>
	<path class="st1" d="M-360.7,62.9c-0.5,0-2-0.1-2-2.1V38.2c0-3.7-3.2-5.5-3.2-5.5v28.3c0,0,0,0,0,0.1c0,0.5-0.1,1.9-1.7,1.9h-2.1
		v1.5l12.5,0v-1.5H-360.7z"/>
	<path class="st1" d="M-342.8,33.2c-0.5,0-1.4,0-1.4,0v-1.6h10.6v1.6c0,0-0.5,0-1.7,0c-2.3,0-2.2,1.7-2.2,2.2v25.7l-3.2,0V35.5
		C-340.7,35.5-340.5,33.2-342.8,33.2"/>
	<path class="st1" d="M-356.4,31.5c7.7,0,10.5,4,10.6,9.3v0.7c0,6.6-5.3,9-11.1,9h-4.4V49h4.1c9,0,8.7-7.2,8.7-7.3v-1
		c0,0,0.5-7.8-8.5-7.8h-0.3h-1.2v-1.4H-356.4z"/>
	<path class="st1" d="M-340.3,62.9c-2,0-2.7-1.5-2.7-1.5c-1.7-2.4-6.4-9.7-6.4-9.7l-3.8,0c0,0,4.6,7,6.8,10.2c0,0,1.6,2.5,4.7,2.5
		c3.9,0,6,0,6,0l0-1.5H-340.3z"/>
</g>
<g>
	<path class="st1" d="M-533.3,73.5h-6.8l-16.8-35.7v35.7h-5.3V30.2h6.8l16.8,35.7V30.2h5.3V73.5z"/>
	<path class="st1" d="M-527.3,64.7c0-2.9,0.9-5.1,2.6-6.8c1.7-1.6,4.4-2.5,8-2.8l11.3-0.7v-4c0-1.2-0.1-2.1-0.3-3
		c-0.2-0.8-0.6-1.5-1.2-2c-0.6-0.5-1.4-0.9-2.4-1.2c-1-0.2-2.3-0.4-3.8-0.4c-2.8,0-4.8,0.5-5.9,1.4c-1.2,0.9-1.7,2.5-1.7,4.8h-5.2
		c0-2,0.3-3.7,0.9-5c0.6-1.4,1.4-2.4,2.5-3.3c1.1-0.8,2.4-1.4,4-1.8c1.6-0.4,3.4-0.5,5.5-0.5c2.4,0,4.3,0.2,6,0.6
		c1.6,0.4,2.9,1,4,1.9c1,0.9,1.8,2,2.2,3.4c0.5,1.4,0.7,3.1,0.7,5.1v23.1h-3.5l-1.2-3.3c-1.6,1.3-3.3,2.3-5,3c-1.7,0.7-3.6,1-5.8,1
		c-3.8,0-6.7-0.8-8.7-2.4C-526.3,70.3-527.3,67.9-527.3,64.7z M-515.3,69.9c2.1,0,3.9-0.3,5.4-0.9c1.5-0.6,2.9-1.6,4.4-2.9v-8.2
		l-10.7,1.1c-2,0.2-3.5,0.8-4.4,1.6c-1,0.9-1.4,2.1-1.4,3.8c0,1.9,0.6,3.2,1.7,4.1C-519.2,69.4-517.5,69.9-515.3,69.9z"/>
	<path class="st1" d="M-483.5,67.9h0.1l9.1-27.7h5.6l-11.8,33.3h-5.8l-11.9-33.3h5.7L-483.5,67.9z"/>
	<path class="st1" d="M-456.9,30.2h13.7c2.5,0,4.7,0.2,6.6,0.6c1.8,0.4,3.4,1.1,4.6,2.1c1.2,1,2.1,2.4,2.7,4.2
		c0.6,1.8,0.9,4,0.9,6.7c0,2.5-0.3,4.6-0.9,6.3c-0.6,1.7-1.5,3.1-2.7,4.1c-1.2,1-2.7,1.8-4.6,2.3c-1.8,0.5-4,0.7-6.6,0.7h-8.5v16.4
		h-5.3V30.2z M-443.1,52.6c1.7,0,3.1-0.1,4.3-0.4c1.2-0.3,2.1-0.7,2.8-1.4c0.7-0.7,1.3-1.6,1.6-2.7c0.3-1.1,0.5-2.6,0.5-4.3
		c0-1.9-0.2-3.4-0.5-4.5c-0.4-1.2-0.9-2.1-1.6-2.7c-0.7-0.7-1.7-1.1-2.8-1.3c-1.2-0.2-2.6-0.3-4.2-0.3h-8.5v17.7H-443.1z"/>
	<path class="st1" d="M-424.1,30.2h13.7c2.5,0,4.7,0.2,6.6,0.6c1.8,0.4,3.4,1.1,4.6,2.1c1.2,1,2.2,2.4,2.8,4.2
		c0.6,1.8,0.9,4,0.9,6.7c0,3.6-0.6,6.4-1.9,8.4c-1.2,2-3.2,3.4-5.9,4.1l8.4,17.2h-5.8l-7.9-16.4h-10.2v16.4h-5.3V30.2z M-410.3,52.6
		c1.7,0,3.1-0.1,4.3-0.4c1.2-0.3,2.1-0.7,2.8-1.4c0.7-0.7,1.3-1.6,1.6-2.7c0.3-1.1,0.5-2.6,0.5-4.3c0-1.9-0.2-3.4-0.5-4.5
		c-0.4-1.2-0.9-2.1-1.7-2.7c-0.8-0.7-1.7-1.1-2.9-1.3c-1.2-0.2-2.6-0.3-4.2-0.3h-8.4v17.7H-410.3z"/>
	<path class="st1" d="M-562.5,85.5h5.5c1.1,0,2,0.1,2.7,0.3c0.8,0.2,1.4,0.5,1.9,0.9c0.5,0.4,0.9,1,1.1,1.7c0.2,0.7,0.4,1.6,0.4,2.7
		c0,2-0.5,3.4-1.4,4.2c-1,0.8-2.5,1.3-4.6,1.3h-4.2v7.2h-1.4V85.5z M-561.1,95.4h4.2c0.8,0,1.6-0.1,2.2-0.2c0.6-0.1,1.1-0.4,1.4-0.7
		c0.4-0.3,0.6-0.8,0.8-1.3c0.2-0.5,0.2-1.2,0.2-2c0-0.9-0.1-1.7-0.3-2.2c-0.2-0.6-0.5-1-0.8-1.3c-0.4-0.3-0.9-0.5-1.5-0.6
		c-0.6-0.1-1.3-0.2-2.1-0.2h-4.1V95.4z"/>
	<path class="st1" d="M-546.7,89.7v9.5c0,0.8,0.1,1.4,0.2,1.8c0.1,0.5,0.3,0.9,0.6,1.1c0.3,0.3,0.7,0.5,1.1,0.6
		c0.4,0.1,1,0.2,1.6,0.2c0.8,0,1.6-0.2,2.3-0.5c0.7-0.3,1.4-0.7,2.1-1.3V89.7h1.4v14.1h-0.8l-0.5-1.6c-0.8,0.6-1.5,1.1-2.2,1.4
		c-0.7,0.3-1.5,0.5-2.4,0.5c-0.8,0-1.5-0.1-2.1-0.2c-0.6-0.1-1.1-0.4-1.5-0.8c-0.4-0.4-0.7-0.9-0.9-1.5c-0.2-0.6-0.3-1.4-0.3-2.4
		v-9.5H-546.7z"/>
	<path class="st1" d="M-527.7,104.1c-0.8,0-1.6-0.2-2.4-0.5c-0.8-0.4-1.6-0.8-2.3-1.3l-0.5,1.6h-0.8V84.9h1.4v6.3
		c0.7-0.5,1.4-0.9,2.2-1.3c0.8-0.3,1.6-0.5,2.4-0.5c0.8,0,1.6,0.1,2.3,0.3c0.7,0.2,1.2,0.5,1.7,1c0.5,0.5,0.8,1.2,1.1,2
		c0.2,0.8,0.4,1.9,0.4,3.2v1.6c0,1.3-0.1,2.4-0.4,3.2c-0.2,0.8-0.6,1.5-1.1,2c-0.5,0.5-1,0.8-1.7,1
		C-526.1,104-526.9,104.1-527.7,104.1z M-527.9,103c0.8,0,1.4-0.1,1.9-0.2c0.5-0.1,1-0.4,1.3-0.8c0.3-0.4,0.6-1,0.7-1.7
		c0.2-0.7,0.2-1.6,0.2-2.7V96c0-1.1-0.1-2-0.2-2.7c-0.2-0.7-0.4-1.2-0.7-1.7c-0.3-0.4-0.8-0.7-1.3-0.8c-0.5-0.1-1.2-0.2-1.9-0.2
		c-0.7,0-1.5,0.2-2.3,0.5c-0.8,0.3-1.5,0.7-2.3,1.3v8.8c0.7,0.6,1.5,1,2.3,1.3C-529.3,102.8-528.6,103-527.9,103z"/>
	<path class="st1" d="M-519.2,84.9h1.4v18.9h-1.4V84.9z"/>
	<path class="st1" d="M-514.2,84.9h1.8v1.7h-1.8V84.9z M-514,89.7h1.4v14.1h-1.4V89.7z"/>
	<path class="st1" d="M-503.6,90.6c-0.8,0-1.5,0.1-2,0.2c-0.6,0.2-1,0.4-1.4,0.8c-0.3,0.4-0.6,0.9-0.7,1.6c-0.2,0.7-0.2,1.6-0.2,2.7
		v1.6c0,1.1,0.1,2,0.2,2.7c0.2,0.7,0.4,1.2,0.7,1.6c0.3,0.4,0.8,0.7,1.4,0.8c0.6,0.2,1.2,0.2,2,0.2c0.8,0,1.4-0.1,1.9-0.2
		c0.5-0.1,0.9-0.3,1.2-0.6c0.3-0.2,0.5-0.6,0.6-0.9c0.1-0.4,0.2-0.8,0.2-1.3h1.4c0,1.5-0.4,2.6-1.2,3.2c-0.8,0.6-2.2,1-4,1
		c-1,0-1.8-0.1-2.6-0.3c-0.7-0.2-1.3-0.5-1.8-1c-0.5-0.5-0.8-1.2-1-2c-0.2-0.8-0.3-1.9-0.3-3.2V96c0-1.3,0.1-2.4,0.3-3.2
		c0.2-0.8,0.6-1.5,1-2c0.5-0.5,1.1-0.8,1.8-1c0.7-0.2,1.6-0.3,2.6-0.3c1.8,0,3.2,0.3,4,1c0.8,0.6,1.2,1.7,1.2,3.2h-1.4
		c0-0.5-0.1-1-0.2-1.3c-0.1-0.4-0.3-0.7-0.6-0.9c-0.3-0.2-0.7-0.4-1.2-0.5C-502.2,90.7-502.8,90.6-503.6,90.6z"/>
	<path class="st1" d="M-488.9,85.5h5.5c1.1,0,2,0.1,2.7,0.3c0.8,0.2,1.4,0.5,1.9,0.9c0.5,0.4,0.9,1,1.1,1.7c0.2,0.7,0.4,1.6,0.4,2.7
		c0,1.5-0.3,2.7-0.8,3.5c-0.6,0.8-1.4,1.4-2.6,1.7l3.7,7.5h-1.5l-3.5-7.3c-0.2,0-0.4,0-0.6,0c-0.2,0-0.4,0-0.6,0h-4.2v7.2h-1.4V85.5
		z M-487.5,95.4h4.2c0.8,0,1.6-0.1,2.2-0.2c0.6-0.1,1.1-0.4,1.4-0.7c0.4-0.3,0.6-0.8,0.8-1.3c0.2-0.5,0.2-1.2,0.2-2
		c0-0.9-0.1-1.7-0.3-2.2c-0.2-0.6-0.5-1-0.8-1.3c-0.4-0.3-0.9-0.5-1.5-0.6c-0.6-0.1-1.3-0.2-2.1-0.2h-4.1V95.4z"/>
	<path class="st1" d="M-473.4,97.4c0,1.2,0.1,2.1,0.2,2.9c0.2,0.7,0.4,1.3,0.8,1.7c0.4,0.4,0.8,0.7,1.4,0.8c0.6,0.1,1.3,0.2,2.2,0.2
		c0.9,0,1.7-0.1,2.4-0.2c0.7-0.1,1.4-0.3,2.1-0.4v1.2c-0.6,0.1-1.3,0.3-2.1,0.4c-0.8,0.1-1.7,0.2-2.7,0.2c-1,0-1.9-0.1-2.6-0.3
		c-0.7-0.2-1.3-0.5-1.8-1c-0.5-0.5-0.8-1.1-1.1-2c-0.2-0.8-0.4-1.9-0.4-3.3V96c0-1.3,0.1-2.4,0.4-3.2c0.2-0.8,0.6-1.5,1-2
		c0.5-0.5,1-0.8,1.8-1c0.7-0.2,1.6-0.3,2.5-0.3s1.8,0.1,2.5,0.3c0.7,0.2,1.3,0.5,1.7,1c0.4,0.5,0.8,1.2,1,2c0.2,0.8,0.3,1.9,0.3,3.2
		v1.3H-473.4z M-464.9,96.2c0-1.1-0.1-2.1-0.2-2.8c-0.1-0.7-0.3-1.3-0.7-1.7c-0.3-0.4-0.7-0.7-1.3-0.8c-0.5-0.2-1.2-0.2-2-0.2
		c-0.8,0-1.5,0.1-2,0.2c-0.6,0.2-1,0.4-1.3,0.8c-0.3,0.4-0.6,1-0.7,1.7c-0.1,0.7-0.2,1.7-0.2,2.8H-464.9z"/>
	<path class="st1" d="M-460.4,84.9h1.4v18.9h-1.4V84.9z"/>
	<path class="st1" d="M-455.9,100.1c0-1.2,0.4-2.1,1.1-2.8c0.7-0.7,1.8-1,3.3-1.1l5.3-0.3v-2c0-0.6-0.1-1.1-0.2-1.6
		c-0.1-0.4-0.3-0.8-0.6-1c-0.3-0.3-0.7-0.4-1.2-0.6c-0.5-0.1-1.1-0.2-1.9-0.2c-0.7,0-1.3,0-1.8,0.1c-0.5,0.1-0.9,0.3-1.2,0.5
		c-0.3,0.2-0.5,0.5-0.7,0.9c-0.1,0.4-0.2,0.9-0.2,1.5h-1.4c0-0.8,0.1-1.5,0.4-2.1c0.2-0.5,0.6-1,1-1.3c0.5-0.3,1-0.5,1.6-0.6
		c0.6-0.1,1.4-0.2,2.1-0.2c0.9,0,1.7,0.1,2.4,0.2c0.7,0.2,1.2,0.4,1.6,0.8c0.4,0.4,0.7,0.8,0.9,1.4c0.2,0.6,0.3,1.3,0.3,2.1v9.9
		h-0.8l-0.5-1.6c-0.8,0.6-1.6,1.1-2.4,1.4c-0.7,0.3-1.6,0.5-2.6,0.5c-1.5,0-2.6-0.3-3.5-0.9C-455.4,102.6-455.9,101.5-455.9,100.1z
		 M-450.9,103c1,0,1.9-0.2,2.6-0.5c0.7-0.3,1.4-0.7,2.2-1.3V97l-5.2,0.4c-1.1,0.1-1.9,0.3-2.4,0.8c-0.5,0.4-0.7,1.1-0.7,2
		c0,1,0.3,1.8,0.9,2.2C-452.9,102.7-452.1,103-450.9,103z"/>
	<path class="st1" d="M-440.8,86.3l1.4-0.3v3.7h3.4v1.2h-3.4v9.9c0,0.7,0.1,1.2,0.4,1.5c0.3,0.4,0.7,0.6,1.4,0.6
		c0.4,0,0.8,0,1.2-0.1c0.3-0.1,0.7-0.1,1-0.2v1.2c-0.3,0.1-0.6,0.1-1,0.2c-0.4,0.1-0.8,0.1-1.2,0.1c-1.1,0-1.8-0.3-2.4-0.8
		c-0.5-0.5-0.8-1.4-0.8-2.5v-9.9h-1.7V90l1.7-0.3V86.3z"/>
	<path class="st1" d="M-433.3,84.9h1.8v1.7h-1.8V84.9z M-433.1,89.7h1.4v14.1h-1.4V89.7z"/>
	<path class="st1" d="M-416.9,97.6c0,1.3-0.1,2.3-0.3,3.2c-0.2,0.8-0.6,1.5-1,2c-0.5,0.5-1.1,0.9-1.8,1.1c-0.7,0.2-1.6,0.3-2.6,0.3
		c-1,0-1.9-0.1-2.6-0.3c-0.7-0.2-1.3-0.6-1.8-1.1c-0.5-0.5-0.8-1.2-1-2c-0.2-0.8-0.3-1.9-0.3-3.2V96c0-1.3,0.1-2.3,0.3-3.2
		c0.2-0.8,0.6-1.5,1-2c0.5-0.5,1.1-0.9,1.8-1.1c0.7-0.2,1.6-0.3,2.6-0.3c1,0,1.9,0.1,2.6,0.3c0.7,0.2,1.3,0.6,1.8,1.1
		c0.5,0.5,0.8,1.2,1,2c0.2,0.8,0.3,1.9,0.3,3.2V97.6z M-418.3,96c0-1.1-0.1-2-0.2-2.7c-0.1-0.7-0.4-1.2-0.7-1.7
		c-0.3-0.4-0.8-0.7-1.4-0.8c-0.6-0.1-1.3-0.2-2.1-0.2c-0.8,0-1.5,0.1-2.1,0.2c-0.6,0.2-1,0.4-1.4,0.8c-0.3,0.4-0.6,1-0.7,1.7
		C-427,94-427,94.9-427,96v1.6c0,1.1,0.1,2,0.2,2.7c0.1,0.7,0.4,1.2,0.7,1.7c0.3,0.4,0.8,0.7,1.4,0.8c0.6,0.2,1.3,0.2,2.1,0.2
		c0.8,0,1.5-0.1,2.1-0.2c0.6-0.1,1-0.4,1.4-0.8c0.3-0.4,0.6-1,0.7-1.7c0.1-0.7,0.2-1.6,0.2-2.7V96z"/>
	<path class="st1" d="M-404.4,103.9v-9.5c0-0.8-0.1-1.4-0.2-1.8c-0.1-0.5-0.3-0.9-0.6-1.1c-0.3-0.3-0.7-0.5-1.1-0.6
		c-0.4-0.1-1-0.2-1.6-0.2c-0.8,0-1.6,0.2-2.3,0.5c-0.7,0.3-1.4,0.7-2.1,1.3v11.4h-1.4V89.7h0.8l0.5,1.6c0.7-0.5,1.5-1,2.2-1.3
		c0.7-0.3,1.6-0.5,2.5-0.5c0.8,0,1.5,0.1,2.1,0.2c0.6,0.2,1.1,0.4,1.5,0.8c0.4,0.4,0.7,0.9,0.9,1.5c0.2,0.6,0.3,1.4,0.3,2.4v9.5
		H-404.4z"/>
	<path class="st1" d="M-398.8,99.9c0,1.1,0.3,1.8,0.9,2.3c0.6,0.5,1.6,0.7,3.2,0.7c0.9,0,1.7-0.1,2.3-0.2c0.6-0.1,1-0.3,1.3-0.6
		c0.3-0.3,0.5-0.6,0.6-0.9c0.1-0.4,0.1-0.8,0.1-1.2c0-0.4-0.1-0.8-0.2-1.1c-0.1-0.3-0.4-0.6-0.7-0.8c-0.3-0.2-0.7-0.4-1.3-0.5
		c-0.5-0.1-1.2-0.2-2-0.3c-1.8-0.2-3.1-0.5-3.9-1.1c-0.8-0.6-1.2-1.5-1.2-2.8c0-1.4,0.5-2.5,1.4-3.1c0.9-0.6,2.2-0.9,3.8-0.9
		c1.8,0,3.1,0.3,3.9,1c0.8,0.7,1.2,1.7,1.2,3.2h-1.4c0-1.1-0.3-1.8-0.8-2.3c-0.6-0.5-1.5-0.7-2.9-0.7c-1.2,0-2.2,0.2-2.8,0.6
		c-0.7,0.4-1,1.1-1,2.2c0,1,0.3,1.6,1,2c0.6,0.4,1.7,0.6,3,0.8c1,0.1,1.9,0.2,2.6,0.4c0.7,0.2,1.2,0.4,1.7,0.7
		c0.4,0.3,0.7,0.7,0.9,1.1c0.2,0.4,0.2,1,0.2,1.6c0,0.6-0.1,1.1-0.2,1.6s-0.4,0.9-0.8,1.3c-0.4,0.4-1,0.7-1.7,0.9
		c-0.7,0.2-1.7,0.3-2.9,0.3c-1.1,0-2-0.1-2.7-0.3c-0.7-0.2-1.2-0.5-1.7-0.8c-0.4-0.4-0.7-0.8-0.8-1.3c-0.2-0.5-0.2-1.1-0.2-1.7
		H-398.8z"/>
	<path class="st1" d="M-370.4,90.1c0-1.3-0.3-2.3-0.9-2.8c-0.6-0.6-1.7-0.8-3.1-0.8c-1.4,0-2.4,0.3-3.1,0.9c-0.7,0.6-1.1,1.6-1.1,3
		c0,1.1,0.3,2,0.8,2.7c0.6,0.7,1.3,1,2.2,1h9.1v1.2h-2.3v4.7c0,0.4,0,0.8,0.1,1.2c0.1,0.3,0.2,0.6,0.4,0.9c0.2,0.2,0.5,0.4,0.9,0.5
		c0.4,0.1,0.8,0.2,1.4,0.2v1.2c-1.9,0-3.2-0.6-3.7-1.9c-0.4,0.7-1,1.2-1.8,1.6c-0.8,0.4-2,0.6-3.4,0.6c-1.9,0-3.4-0.4-4.4-1.3
		c-1-0.9-1.5-2.2-1.5-3.9c0-1.1,0.3-2,0.9-2.8c0.6-0.7,1.3-1.3,2.1-1.6c-0.7-0.3-1.2-0.9-1.7-1.6c-0.5-0.7-0.7-1.6-0.7-2.7
		c0-1.8,0.5-3.1,1.5-3.9c1-0.8,2.4-1.2,4.2-1.2c2,0,3.4,0.4,4.2,1.2c0.8,0.8,1.3,2,1.3,3.7H-370.4z M-374.8,102.9
		c1,0,1.7-0.1,2.4-0.3c0.6-0.2,1.1-0.5,1.4-0.9c0.3-0.4,0.6-0.8,0.7-1.3c0.1-0.5,0.2-1.1,0.2-1.7v-3.5h-5.5c-1.1,0-2,0.3-2.6,1
		c-0.7,0.7-1,1.6-1,2.8c0,1.4,0.4,2.4,1.1,3C-377.4,102.6-376.3,102.9-374.8,102.9z"/>
	<path class="st1" d="M-348.1,98.8h-7.1l-1.5,5h-1.5l5.7-18.4h1.8l5.7,18.4h-1.5L-348.1,98.8z M-354.9,97.6h6.4l-3.2-10.5h-0.1
		L-354.9,97.6z"/>
	<path class="st1" d="M-337.8,86.1c-0.2-0.1-0.5-0.1-0.8-0.2c-0.3-0.1-0.6-0.1-1-0.1c-0.6,0-1.1,0.1-1.4,0.4
		c-0.3,0.3-0.4,0.7-0.4,1.4v2.1h2.8v1.2h-2.8v12.9h-1.4V90.9h-1.7V90l1.7-0.3v-2.1c0-1,0.3-1.8,0.8-2.2c0.5-0.5,1.3-0.7,2.3-0.7
		c0.4,0,0.8,0,1.1,0.1c0.3,0.1,0.6,0.1,0.8,0.2V86.1z"/>
	<path class="st1" d="M-330,86.1c-0.2-0.1-0.5-0.1-0.8-0.2c-0.3-0.1-0.6-0.1-1-0.1c-0.6,0-1.1,0.1-1.4,0.4c-0.3,0.3-0.4,0.7-0.4,1.4
		v2.1h2.8v1.2h-2.8v12.9h-1.4V90.9h-1.7V90l1.7-0.3v-2.1c0-1,0.3-1.8,0.8-2.2c0.5-0.5,1.3-0.7,2.3-0.7c0.4,0,0.8,0,1.1,0.1
		c0.3,0.1,0.6,0.1,0.8,0.2V86.1z"/>
	<path class="st1" d="M-329.4,100.1c0-1.2,0.4-2.1,1.1-2.8c0.7-0.7,1.8-1,3.3-1.1l5.3-0.3v-2c0-0.6-0.1-1.1-0.2-1.6
		c-0.1-0.4-0.3-0.8-0.6-1c-0.3-0.3-0.7-0.4-1.2-0.6c-0.5-0.1-1.1-0.2-1.9-0.2c-0.7,0-1.3,0-1.8,0.1c-0.5,0.1-0.9,0.3-1.2,0.5
		c-0.3,0.2-0.5,0.5-0.7,0.9c-0.1,0.4-0.2,0.9-0.2,1.5h-1.4c0-0.8,0.1-1.5,0.4-2.1c0.2-0.5,0.6-1,1-1.3c0.5-0.3,1-0.5,1.6-0.6
		c0.6-0.1,1.4-0.2,2.1-0.2c0.9,0,1.7,0.1,2.4,0.2c0.7,0.2,1.2,0.4,1.6,0.8c0.4,0.4,0.7,0.8,0.9,1.4c0.2,0.6,0.3,1.3,0.3,2.1v9.9
		h-0.8l-0.5-1.6c-0.8,0.6-1.6,1.1-2.4,1.4c-0.7,0.3-1.6,0.5-2.6,0.5c-1.5,0-2.6-0.3-3.5-0.9C-329,102.6-329.4,101.5-329.4,100.1z
		 M-324.5,103c1,0,1.9-0.2,2.6-0.5c0.7-0.3,1.4-0.7,2.2-1.3V97l-5.2,0.4c-1.1,0.1-1.9,0.3-2.4,0.8c-0.5,0.4-0.7,1.1-0.7,2
		c0,1,0.3,1.8,0.9,2.2C-326.5,102.7-325.6,103-324.5,103z"/>
	<path class="st1" d="M-314.8,84.9h1.7v1.7h-1.7V84.9z M-314.6,89.7h1.4v14.1h-1.4V89.7z"/>
	<path class="st1" d="M-303.9,90.8c-1,0-1.8,0.1-2.4,0.4c-0.6,0.3-1.2,0.7-1.8,1.3v11.4h-1.4V89.7h0.8l0.5,1.6
		c0.6-0.5,1.2-1,1.9-1.3c0.7-0.3,1.4-0.5,2.4-0.5V90.8z"/>
	<path class="st1" d="M-301.2,99.9c0,1.1,0.3,1.8,0.9,2.3c0.6,0.5,1.6,0.7,3.2,0.7c0.9,0,1.7-0.1,2.3-0.2c0.6-0.1,1-0.3,1.3-0.6
		c0.3-0.3,0.5-0.6,0.6-0.9c0.1-0.4,0.1-0.8,0.1-1.2c0-0.4-0.1-0.8-0.2-1.1c-0.1-0.3-0.4-0.6-0.7-0.8s-0.7-0.4-1.3-0.5
		c-0.5-0.1-1.2-0.2-2-0.3c-1.8-0.2-3.1-0.5-3.9-1.1c-0.8-0.6-1.2-1.5-1.2-2.8c0-1.4,0.5-2.5,1.4-3.1c0.9-0.6,2.2-0.9,3.8-0.9
		c1.8,0,3.1,0.3,3.9,1c0.8,0.7,1.2,1.7,1.2,3.2h-1.4c0-1.1-0.3-1.8-0.8-2.3c-0.6-0.5-1.5-0.7-2.9-0.7c-1.2,0-2.2,0.2-2.8,0.6
		c-0.7,0.4-1,1.1-1,2.2c0,1,0.3,1.6,1,2c0.6,0.4,1.7,0.6,3,0.8c1,0.1,1.9,0.2,2.6,0.4c0.7,0.2,1.2,0.4,1.7,0.7
		c0.4,0.3,0.7,0.7,0.9,1.1c0.2,0.4,0.2,1,0.2,1.6c0,0.6-0.1,1.1-0.2,1.6c-0.1,0.5-0.4,0.9-0.8,1.3c-0.4,0.4-1,0.7-1.7,0.9
		c-0.7,0.2-1.7,0.3-2.9,0.3c-1.1,0-2-0.1-2.7-0.3c-0.7-0.2-1.2-0.5-1.7-0.8c-0.4-0.4-0.7-0.8-0.8-1.3c-0.2-0.5-0.2-1.1-0.2-1.7
		H-301.2z"/>
</g>
</svg>
