<?xml version="1.0" encoding="utf-8"?>
<!-- Generator: Adobe Illustrator 19.1.0, SVG Export Plug-In . SVG Version: 6.00 Build 0)  -->
<svg version="1.1" id="Layer_1" xmlns="http://www.w3.org/2000/svg" xmlns:xlink="http://www.w3.org/1999/xlink" x="0px" y="0px"
	 width="565px" height="565px" viewBox="-699.5 60.5 565 565" style="enable-background:new -699.5 60.5 565 565;"
	 xml:space="preserve">
<style type="text/css">
	.st0{fill:#FFFFFF;}
</style>
<g>
	<path class="st0" d="M-417,91c-138.9,0-252,113-252,252s113,252,252,252c138.9,0,252-113,252-252S-278.1,91-417,91z M-465.1,493.1
		l-113.3,0v-13.9h19.1c15,0,15.7-13,15.9-17.1c0-0.6,0-1,0-1.1V209.1h-37.7l0-14.2h56.4c22.4,0,30.3,14.4,31.3,15.9
		c11.1,17.6,74,118.3,74,118.3l1.4,2.3h-37.7l-0.4-0.9c-0.1-0.1-25.4-53.3-40.8-83.8c-5-9.9-9.3-17.2-12.8-22.5
		c-3.1-4.6-8.2-15.1-23.1-15.1h-3.6c8.6,7.2,22.1,22.2,22.1,45v205.6c0.1,18.6,13.8,19.3,18.2,19.5h31V493.1z M-502.5,365.6v-13.3
		h37c81.9,0,78.9-65.2,78.9-65.9v-9.3c0,0,4.6-70.5-77.5-70.5h-2.3h-10.9v-13.1h20.1c69.6,0,95.2,36.6,95.9,84.3v6.5
		c0,59.9-48.3,81.4-101.1,81.4H-502.5z M-324.2,493.1c-28.9,0-43-22.8-43-22.8c-20.4-28.8-61.8-92.6-61.8-92.6l34.5,0
		c0,0,43,66.2,58.6,87.7c0,0,7,13.6,24.8,13.6h41.6l0,14.1C-269.3,493-288.4,493.1-324.2,493.1z M-250.4,209.5c0,0-4.8,0-15.5,0
		c-20.7,0-19.7,15.4-19.7,20.3V463l-29,0V230c0,0,1.4-20.8-19.5-20.8c-4.6,0-13,0-13,0v-14.4h96.7V209.5z"/>
	<path class="st0" d="M-417,60.5C-573,60.5-699.5,187-699.5,343S-573,625.5-417,625.5S-134.5,499-134.5,343S-261,60.5-417,60.5z
		 M-417,601.9c-142.7,0-258.9-116.1-258.9-258.9S-559.7,84.1-417,84.1c142.7,0,258.9,116.1,258.9,258.9S-274.3,601.9-417,601.9z"/>
</g>
</svg>
